<svg xmlns="http://www.w3.org/2000/svg" xmlns:xlink="http://www.w3.org/1999/xlink" width="800" zoomAndPan="magnify" viewBox="0 0 600 149.999998" height="200" preserveAspectRatio="xMidYMid meet" version="1.0"><defs><g/><clipPath id="688a4f5ff7"><path d="M 46.332031 15.003906 L 394.136719 15.003906 L 394.136719 136.316406 L 46.332031 136.316406 Z M 46.332031 15.003906 " clip-rule="nonzero"/></clipPath><clipPath id="bab2ac6a75"><rect x="0" width="309" y="0" height="121"/></clipPath><clipPath id="95646d8c9e"><path d="M 391.511719 15.003906 L 581.070312 15.003906 L 581.070312 136.316406 L 391.511719 136.316406 Z M 391.511719 15.003906 " clip-rule="nonzero"/></clipPath><clipPath id="8abf4b5735"><path d="M 450.691406 18.515625 L 482.761719 18.515625 L 482.761719 27.140625 L 450.691406 27.140625 Z M 450.691406 18.515625 " clip-rule="nonzero"/></clipPath><clipPath id="40c4608526"><path d="M 465.207031 21.515625 L 468.246094 21.515625 L 468.246094 24.148438 L 465.207031 24.148438 Z M 465.207031 21.515625 " clip-rule="nonzero"/></clipPath><clipPath id="c03d1bc7f9"><path d="M 0.207031 0.515625 L 3.246094 0.515625 L 3.246094 3.148438 L 0.207031 3.148438 Z M 0.207031 0.515625 " clip-rule="nonzero"/></clipPath><clipPath id="37074263a4"><rect x="0" width="4" y="0" height="4"/></clipPath><clipPath id="ffbbfd73eb"><path d="M 473.105469 21.515625 L 476.144531 21.515625 L 476.144531 24.148438 L 473.105469 24.148438 Z M 473.105469 21.515625 " clip-rule="nonzero"/></clipPath><clipPath id="9c79e19938"><path d="M 0.105469 0.515625 L 3.144531 0.515625 L 3.144531 3.148438 L 0.105469 3.148438 Z M 0.105469 0.515625 " clip-rule="nonzero"/></clipPath><clipPath id="98705fb23c"><rect x="0" width="4" y="0" height="4"/></clipPath><clipPath id="39e07e31a3"><path d="M 457.429688 21.515625 L 460.46875 21.515625 L 460.46875 24.148438 L 457.429688 24.148438 Z M 457.429688 21.515625 " clip-rule="nonzero"/></clipPath><clipPath id="c902fb96dc"><path d="M 0.429688 0.515625 L 3.46875 0.515625 L 3.46875 3.148438 L 0.429688 3.148438 Z M 0.429688 0.515625 " clip-rule="nonzero"/></clipPath><clipPath id="7caeda6db6"><rect x="0" width="4" y="0" height="4"/></clipPath><clipPath id="b5c8e77a1b"><path d="M 401.375 18.515625 L 433.441406 18.515625 L 433.441406 27.140625 L 401.375 27.140625 Z M 401.375 18.515625 " clip-rule="nonzero"/></clipPath><clipPath id="60b05ea0ad"><path d="M 415.890625 21.515625 L 418.929688 21.515625 L 418.929688 24.148438 L 415.890625 24.148438 Z M 415.890625 21.515625 " clip-rule="nonzero"/></clipPath><clipPath id="457ee6a2a0"><path d="M 0.890625 0.515625 L 3.929688 0.515625 L 3.929688 3.148438 L 0.890625 3.148438 Z M 0.890625 0.515625 " clip-rule="nonzero"/></clipPath><clipPath id="866a1b4bab"><rect x="0" width="4" y="0" height="4"/></clipPath><clipPath id="4cf7dc791a"><path d="M 423.789062 21.515625 L 426.828125 21.515625 L 426.828125 24.148438 L 423.789062 24.148438 Z M 423.789062 21.515625 " clip-rule="nonzero"/></clipPath><clipPath id="c5b9940fd2"><path d="M 0.789062 0.515625 L 3.828125 0.515625 L 3.828125 3.148438 L 0.789062 3.148438 Z M 0.789062 0.515625 " clip-rule="nonzero"/></clipPath><clipPath id="7b1edea3f7"><rect x="0" width="4" y="0" height="4"/></clipPath><clipPath id="a4f3c944b9"><path d="M 408.113281 21.515625 L 411.152344 21.515625 L 411.152344 24.148438 L 408.113281 24.148438 Z M 408.113281 21.515625 " clip-rule="nonzero"/></clipPath><clipPath id="798fbffa05"><path d="M 0.113281 0.515625 L 3.152344 0.515625 L 3.152344 3.148438 L 0.113281 3.148438 Z M 0.113281 0.515625 " clip-rule="nonzero"/></clipPath><clipPath id="8ca69fc3fa"><rect x="0" width="4" y="0" height="4"/></clipPath><clipPath id="71c0d3d70e"><path d="M 497.300781 18.515625 L 529.367188 18.515625 L 529.367188 27.140625 L 497.300781 27.140625 Z M 497.300781 18.515625 " clip-rule="nonzero"/></clipPath><clipPath id="9fade3a297"><path d="M 511.816406 21.515625 L 514.855469 21.515625 L 514.855469 24.148438 L 511.816406 24.148438 Z M 511.816406 21.515625 " clip-rule="nonzero"/></clipPath><clipPath id="3f374022e2"><path d="M 0.816406 0.515625 L 3.855469 0.515625 L 3.855469 3.148438 L 0.816406 3.148438 Z M 0.816406 0.515625 " clip-rule="nonzero"/></clipPath><clipPath id="fa1e0d9a76"><rect x="0" width="4" y="0" height="4"/></clipPath><clipPath id="e14b6eda16"><path d="M 519.714844 21.515625 L 522.753906 21.515625 L 522.753906 24.148438 L 519.714844 24.148438 Z M 519.714844 21.515625 " clip-rule="nonzero"/></clipPath><clipPath id="f07f3387ff"><path d="M 0.714844 0.515625 L 3.753906 0.515625 L 3.753906 3.148438 L 0.714844 3.148438 Z M 0.714844 0.515625 " clip-rule="nonzero"/></clipPath><clipPath id="56770895ca"><rect x="0" width="4" y="0" height="4"/></clipPath><clipPath id="d13d7d84e1"><path d="M 504.039062 21.515625 L 507.078125 21.515625 L 507.078125 24.148438 L 504.039062 24.148438 Z M 504.039062 21.515625 " clip-rule="nonzero"/></clipPath><clipPath id="636a7fb407"><path d="M 0.0390625 0.515625 L 3.078125 0.515625 L 3.078125 3.148438 L 0.0390625 3.148438 Z M 0.0390625 0.515625 " clip-rule="nonzero"/></clipPath><clipPath id="b5b8fef151"><rect x="0" width="4" y="0" height="4"/></clipPath><clipPath id="e769cfa535"><path d="M 542.296875 18.515625 L 574.367188 18.515625 L 574.367188 27.140625 L 542.296875 27.140625 Z M 542.296875 18.515625 " clip-rule="nonzero"/></clipPath><clipPath id="2e9a2e4f2f"><path d="M 556.8125 21.515625 L 559.851562 21.515625 L 559.851562 24.148438 L 556.8125 24.148438 Z M 556.8125 21.515625 " clip-rule="nonzero"/></clipPath><clipPath id="f2756a0bb0"><path d="M 0.8125 0.515625 L 3.851562 0.515625 L 3.851562 3.148438 L 0.8125 3.148438 Z M 0.8125 0.515625 " clip-rule="nonzero"/></clipPath><clipPath id="6da32bf8b5"><rect x="0" width="4" y="0" height="4"/></clipPath><clipPath id="c86d4d8378"><path d="M 564.710938 21.515625 L 567.75 21.515625 L 567.75 24.148438 L 564.710938 24.148438 Z M 564.710938 21.515625 " clip-rule="nonzero"/></clipPath><clipPath id="819222353d"><path d="M 0.710938 0.515625 L 3.75 0.515625 L 3.75 3.148438 L 0.710938 3.148438 Z M 0.710938 0.515625 " clip-rule="nonzero"/></clipPath><clipPath id="12cb97496e"><rect x="0" width="4" y="0" height="4"/></clipPath><clipPath id="8d77506aaf"><path d="M 549.035156 21.515625 L 552.074219 21.515625 L 552.074219 24.148438 L 549.035156 24.148438 Z M 549.035156 21.515625 " clip-rule="nonzero"/></clipPath><clipPath id="0ba4c41a11"><path d="M 0.0351562 0.515625 L 3.074219 0.515625 L 3.074219 3.148438 L 0.0351562 3.148438 Z M 0.0351562 0.515625 " clip-rule="nonzero"/></clipPath><clipPath id="4d2d6f2623"><rect x="0" width="4" y="0" height="4"/></clipPath><clipPath id="2eaf1fdec8"><path d="M 447.308594 30.886719 L 486.101562 30.886719 L 486.101562 81.320312 L 447.308594 81.320312 Z M 447.308594 30.886719 " clip-rule="nonzero"/></clipPath><clipPath id="359b7da664"><path d="M 0.308594 0.886719 L 39.101562 0.886719 L 39.101562 51.320312 L 0.308594 51.320312 Z M 0.308594 0.886719 " clip-rule="nonzero"/></clipPath><clipPath id="2be09b550b"><rect x="0" width="40" y="0" height="52"/></clipPath><clipPath id="f8ec5e2472"><path d="M 449.613281 32.875 L 483.796875 32.875 L 483.796875 79.34375 L 449.613281 79.34375 Z M 449.613281 32.875 " clip-rule="nonzero"/></clipPath><clipPath id="5e04866a7e"><path d="M 453.363281 32.875 L 480.046875 32.875 C 481.042969 32.875 481.996094 33.273438 482.699219 33.976562 C 483.402344 34.679688 483.796875 35.632812 483.796875 36.625 L 483.796875 75.578125 C 483.796875 76.574219 483.402344 77.527344 482.699219 78.230469 C 481.996094 78.933594 481.042969 79.328125 480.046875 79.328125 L 453.363281 79.328125 C 452.367188 79.328125 451.414062 78.933594 450.710938 78.230469 C 450.007812 77.527344 449.613281 76.574219 449.613281 75.578125 L 449.613281 36.625 C 449.613281 35.632812 450.007812 34.679688 450.710938 33.976562 C 451.414062 33.273438 452.367188 32.875 453.363281 32.875 Z M 453.363281 32.875 " clip-rule="nonzero"/></clipPath><clipPath id="ab6f38dc0f"><path d="M 0.613281 0.875 L 34.796875 0.875 L 34.796875 47.34375 L 0.613281 47.34375 Z M 0.613281 0.875 " clip-rule="nonzero"/></clipPath><clipPath id="cff9ec7f84"><path d="M 4.363281 0.875 L 31.046875 0.875 C 32.042969 0.875 32.996094 1.273438 33.699219 1.976562 C 34.402344 2.679688 34.796875 3.632812 34.796875 4.625 L 34.796875 43.578125 C 34.796875 44.574219 34.402344 45.527344 33.699219 46.230469 C 32.996094 46.933594 32.042969 47.328125 31.046875 47.328125 L 4.363281 47.328125 C 3.367188 47.328125 2.414062 46.933594 1.710938 46.230469 C 1.007812 45.527344 0.613281 44.574219 0.613281 43.578125 L 0.613281 4.625 C 0.613281 3.632812 1.007812 2.679688 1.710938 1.976562 C 2.414062 1.273438 3.367188 0.875 4.363281 0.875 Z M 4.363281 0.875 " clip-rule="nonzero"/></clipPath><clipPath id="af8126375d"><rect x="0" width="35" y="0" height="48"/></clipPath><clipPath id="0f64bccf8d"><path d="M 449.617188 32.875 L 484 32.875 L 484 79.375 L 449.617188 79.375 Z M 449.617188 32.875 " clip-rule="nonzero"/></clipPath><clipPath id="c0aa3d0f96"><path d="M 453.367188 32.875 L 480.042969 32.875 C 481.039062 32.875 481.992188 33.273438 482.695312 33.976562 C 483.398438 34.679688 483.792969 35.632812 483.792969 36.625 L 483.792969 75.570312 C 483.792969 76.5625 483.398438 77.515625 482.695312 78.21875 C 481.992188 78.921875 481.039062 79.316406 480.042969 79.316406 L 453.367188 79.316406 C 452.371094 79.316406 451.417969 78.921875 450.714844 78.21875 C 450.011719 77.515625 449.617188 76.5625 449.617188 75.570312 L 449.617188 36.625 C 449.617188 35.632812 450.011719 34.679688 450.714844 33.976562 C 451.417969 33.273438 452.371094 32.875 453.367188 32.875 Z M 453.367188 32.875 " clip-rule="nonzero"/></clipPath><clipPath id="788379d69d"><path d="M 459.457031 87.964844 L 473.707031 87.964844 L 473.707031 126.953125 L 459.457031 126.953125 Z M 459.457031 87.964844 " clip-rule="nonzero"/></clipPath><clipPath id="5e7bc40a9a"><path d="M 463.203125 87.964844 L 470.195312 87.964844 C 471.1875 87.964844 472.140625 88.359375 472.84375 89.0625 C 473.546875 89.765625 473.941406 90.71875 473.941406 91.710938 L 473.941406 123.363281 C 473.941406 124.355469 473.546875 125.308594 472.84375 126.011719 C 472.140625 126.714844 471.1875 127.109375 470.195312 127.109375 L 463.203125 127.109375 C 462.210938 127.109375 461.257812 126.714844 460.554688 126.011719 C 459.851562 125.308594 459.457031 124.355469 459.457031 123.363281 L 459.457031 91.710938 C 459.457031 90.71875 459.851562 89.765625 460.554688 89.0625 C 461.257812 88.359375 462.210938 87.964844 463.203125 87.964844 Z M 463.203125 87.964844 " clip-rule="nonzero"/></clipPath><clipPath id="3077bef826"><path d="M 446.785156 100.296875 L 486.523438 100.296875 L 486.523438 114.546875 L 446.785156 114.546875 Z M 446.785156 100.296875 " clip-rule="nonzero"/></clipPath><clipPath id="978b063c35"><path d="M 486.523438 104.042969 L 486.523438 111.035156 C 486.523438 112.027344 486.128906 112.980469 485.425781 113.683594 C 484.722656 114.386719 483.769531 114.78125 482.777344 114.78125 L 450.667969 114.78125 C 449.675781 114.78125 448.722656 114.386719 448.019531 113.683594 C 447.316406 112.980469 446.921875 112.027344 446.921875 111.035156 L 446.921875 104.042969 C 446.921875 103.050781 447.316406 102.097656 448.019531 101.394531 C 448.722656 100.691406 449.675781 100.296875 450.667969 100.296875 L 482.777344 100.296875 C 483.769531 100.296875 484.722656 100.691406 485.425781 101.394531 C 486.128906 102.097656 486.523438 103.050781 486.523438 104.042969 Z M 486.523438 104.042969 " clip-rule="nonzero"/></clipPath><clipPath id="52c50ae821"><path d="M 463.46875 91.730469 L 469.996094 91.730469 L 469.996094 97.429688 L 463.46875 97.429688 Z M 463.46875 91.730469 " clip-rule="nonzero"/></clipPath><clipPath id="b25834e8ea"><path d="M 466.726562 91.730469 L 469.984375 97.429688 L 463.46875 97.429688 Z M 466.726562 91.730469 " clip-rule="nonzero"/></clipPath><clipPath id="a5ba4d211e"><path d="M 0.46875 0.730469 L 6.996094 0.730469 L 6.996094 6.429688 L 0.46875 6.429688 Z M 0.46875 0.730469 " clip-rule="nonzero"/></clipPath><clipPath id="8f60c3ff1a"><path d="M 3.726562 0.730469 L 6.984375 6.429688 L 0.46875 6.429688 Z M 3.726562 0.730469 " clip-rule="nonzero"/></clipPath><clipPath id="9f7bbd7186"><rect x="0" width="7" y="0" height="7"/></clipPath><clipPath id="2ae40e5e8a"><path d="M 463.449219 117.417969 L 469.972656 117.417969 L 469.972656 123.117188 L 463.449219 123.117188 Z M 463.449219 117.417969 " clip-rule="nonzero"/></clipPath><clipPath id="55ba669c9f"><path d="M 466.71875 123.117188 L 463.460938 117.417969 L 469.972656 117.417969 Z M 466.71875 123.117188 " clip-rule="nonzero"/></clipPath><clipPath id="0786b725c0"><path d="M 0.449219 0.417969 L 6.972656 0.417969 L 6.972656 6.117188 L 0.449219 6.117188 Z M 0.449219 0.417969 " clip-rule="nonzero"/></clipPath><clipPath id="21ba9699be"><path d="M 3.71875 6.117188 L 0.460938 0.417969 L 6.972656 0.417969 Z M 3.71875 6.117188 " clip-rule="nonzero"/></clipPath><clipPath id="ab23d92a01"><rect x="0" width="7" y="0" height="7"/></clipPath><clipPath id="a79b625bdb"><path d="M 450.679688 104.265625 L 456.382812 104.265625 L 456.382812 110.792969 L 450.679688 110.792969 Z M 450.679688 104.265625 " clip-rule="nonzero"/></clipPath><clipPath id="f0d2230d38"><path d="M 450.679688 107.535156 L 456.382812 104.277344 L 456.382812 110.792969 Z M 450.679688 107.535156 " clip-rule="nonzero"/></clipPath><clipPath id="a629376a2c"><path d="M 0.679688 0.265625 L 6.382812 0.265625 L 6.382812 6.792969 L 0.679688 6.792969 Z M 0.679688 0.265625 " clip-rule="nonzero"/></clipPath><clipPath id="786a901214"><path d="M 0.679688 3.535156 L 6.382812 0.277344 L 6.382812 6.792969 Z M 0.679688 3.535156 " clip-rule="nonzero"/></clipPath><clipPath id="25da5ea64e"><rect x="0" width="7" y="0" height="7"/></clipPath><clipPath id="227cfdd5df"><path d="M 477.105469 104.289062 L 482.804688 104.289062 L 482.804688 110.8125 L 477.105469 110.8125 Z M 477.105469 104.289062 " clip-rule="nonzero"/></clipPath><clipPath id="24d7d42d49"><path d="M 482.804688 107.546875 L 477.105469 110.804688 L 477.105469 104.289062 Z M 482.804688 107.546875 " clip-rule="nonzero"/></clipPath><clipPath id="321661f0ed"><path d="M 0.105469 0.289062 L 5.804688 0.289062 L 5.804688 6.8125 L 0.105469 6.8125 Z M 0.105469 0.289062 " clip-rule="nonzero"/></clipPath><clipPath id="efb74ee07a"><path d="M 5.804688 3.546875 L 0.105469 6.804688 L 0.105469 0.289062 Z M 5.804688 3.546875 " clip-rule="nonzero"/></clipPath><clipPath id="b89384ec35"><rect x="0" width="6" y="0" height="7"/></clipPath><clipPath id="ce822c5abc"><path d="M 500.679688 38.679688 L 526.03125 38.679688 L 526.03125 46.179688 L 500.679688 46.179688 Z M 500.679688 38.679688 " clip-rule="nonzero"/></clipPath><clipPath id="a590dfc8ef"><path d="M 494.421875 41.257812 L 497.460938 41.257812 L 497.460938 43.890625 L 494.421875 43.890625 Z M 494.421875 41.257812 " clip-rule="nonzero"/></clipPath><clipPath id="f657201b5e"><path d="M 0.421875 0.257812 L 3.460938 0.257812 L 3.460938 2.890625 L 0.421875 2.890625 Z M 0.421875 0.257812 " clip-rule="nonzero"/></clipPath><clipPath id="191f1b0763"><rect x="0" width="4" y="0" height="3"/></clipPath><clipPath id="cc850348fa"><path d="M 529.210938 41.257812 L 532.25 41.257812 L 532.25 43.890625 L 529.210938 43.890625 Z M 529.210938 41.257812 " clip-rule="nonzero"/></clipPath><clipPath id="3e8d0e842b"><path d="M 0.210938 0.257812 L 3.25 0.257812 L 3.25 2.890625 L 0.210938 2.890625 Z M 0.210938 0.257812 " clip-rule="nonzero"/></clipPath><clipPath id="23b5abc7e6"><rect x="0" width="4" y="0" height="3"/></clipPath><clipPath id="2044ded1f6"><path d="M 500.679688 30.886719 L 526.03125 30.886719 L 526.03125 38.386719 L 500.679688 38.386719 Z M 500.679688 30.886719 " clip-rule="nonzero"/></clipPath><clipPath id="cb3056fc4b"><path d="M 494.421875 33.46875 L 497.460938 33.46875 L 497.460938 36.101562 L 494.421875 36.101562 Z M 494.421875 33.46875 " clip-rule="nonzero"/></clipPath><clipPath id="0e18f24208"><path d="M 0.421875 0.46875 L 3.460938 0.46875 L 3.460938 3.101562 L 0.421875 3.101562 Z M 0.421875 0.46875 " clip-rule="nonzero"/></clipPath><clipPath id="ad2ce43bb0"><rect x="0" width="4" y="0" height="4"/></clipPath><clipPath id="5fb320a713"><path d="M 529.210938 33.46875 L 532.25 33.46875 L 532.25 36.101562 L 529.210938 36.101562 Z M 529.210938 33.46875 " clip-rule="nonzero"/></clipPath><clipPath id="94f18a91ed"><path d="M 0.210938 0.46875 L 3.25 0.46875 L 3.25 3.101562 L 0.210938 3.101562 Z M 0.210938 0.46875 " clip-rule="nonzero"/></clipPath><clipPath id="8ea6156f98"><rect x="0" width="4" y="0" height="4"/></clipPath><clipPath id="de62bcd6de"><path d="M 500.679688 46.472656 L 526.03125 46.472656 L 526.03125 53.972656 L 500.679688 53.972656 Z M 500.679688 46.472656 " clip-rule="nonzero"/></clipPath><clipPath id="1fff49852c"><path d="M 494.421875 49.050781 L 497.460938 49.050781 L 497.460938 51.683594 L 494.421875 51.683594 Z M 494.421875 49.050781 " clip-rule="nonzero"/></clipPath><clipPath id="b76ed63911"><path d="M 0.421875 0.0507812 L 3.460938 0.0507812 L 3.460938 2.683594 L 0.421875 2.683594 Z M 0.421875 0.0507812 " clip-rule="nonzero"/></clipPath><clipPath id="c3ef6aec31"><rect x="0" width="4" y="0" height="3"/></clipPath><clipPath id="162ae80229"><path d="M 529.210938 49.050781 L 532.25 49.050781 L 532.25 51.683594 L 529.210938 51.683594 Z M 529.210938 49.050781 " clip-rule="nonzero"/></clipPath><clipPath id="bfe744b080"><path d="M 0.210938 0.0507812 L 3.25 0.0507812 L 3.25 2.683594 L 0.210938 2.683594 Z M 0.210938 0.0507812 " clip-rule="nonzero"/></clipPath><clipPath id="4589532924"><rect x="0" width="4" y="0" height="3"/></clipPath><clipPath id="ed4a92527d"><path d="M 500.679688 54.265625 L 526.03125 54.265625 L 526.03125 61.765625 L 500.679688 61.765625 Z M 500.679688 54.265625 " clip-rule="nonzero"/></clipPath><clipPath id="05380dbae8"><path d="M 494.421875 56.84375 L 497.460938 56.84375 L 497.460938 59.476562 L 494.421875 59.476562 Z M 494.421875 56.84375 " clip-rule="nonzero"/></clipPath><clipPath id="3a8230f7b2"><path d="M 0.421875 0.84375 L 3.460938 0.84375 L 3.460938 3.476562 L 0.421875 3.476562 Z M 0.421875 0.84375 " clip-rule="nonzero"/></clipPath><clipPath id="e7189d48aa"><rect x="0" width="4" y="0" height="4"/></clipPath><clipPath id="c80128b1fa"><path d="M 529.210938 56.84375 L 532.25 56.84375 L 532.25 59.476562 L 529.210938 59.476562 Z M 529.210938 56.84375 " clip-rule="nonzero"/></clipPath><clipPath id="b9295bb6b0"><path d="M 0.210938 0.84375 L 3.25 0.84375 L 3.25 3.476562 L 0.210938 3.476562 Z M 0.210938 0.84375 " clip-rule="nonzero"/></clipPath><clipPath id="6e89d8efdf"><rect x="0" width="4" y="0" height="4"/></clipPath><clipPath id="2e68cc903c"><path d="M 500.679688 62.058594 L 526.03125 62.058594 L 526.03125 69.558594 L 500.679688 69.558594 Z M 500.679688 62.058594 " clip-rule="nonzero"/></clipPath><clipPath id="b5e92ba53c"><path d="M 494.421875 64.636719 L 497.460938 64.636719 L 497.460938 67.269531 L 494.421875 67.269531 Z M 494.421875 64.636719 " clip-rule="nonzero"/></clipPath><clipPath id="3afc50def8"><path d="M 0.421875 0.636719 L 3.460938 0.636719 L 3.460938 3.269531 L 0.421875 3.269531 Z M 0.421875 0.636719 " clip-rule="nonzero"/></clipPath><clipPath id="159d4125b0"><rect x="0" width="4" y="0" height="4"/></clipPath><clipPath id="ea7d1464aa"><path d="M 529.210938 64.636719 L 532.25 64.636719 L 532.25 67.269531 L 529.210938 67.269531 Z M 529.210938 64.636719 " clip-rule="nonzero"/></clipPath><clipPath id="2c82061495"><path d="M 0.210938 0.636719 L 3.25 0.636719 L 3.25 3.269531 L 0.210938 3.269531 Z M 0.210938 0.636719 " clip-rule="nonzero"/></clipPath><clipPath id="fc12377d4e"><rect x="0" width="4" y="0" height="4"/></clipPath><clipPath id="7633977bc9"><path d="M 500.679688 69.851562 L 526.03125 69.851562 L 526.03125 77.351562 L 500.679688 77.351562 Z M 500.679688 69.851562 " clip-rule="nonzero"/></clipPath><clipPath id="5c94c3cee0"><path d="M 494.421875 72.429688 L 497.460938 72.429688 L 497.460938 75.0625 L 494.421875 75.0625 Z M 494.421875 72.429688 " clip-rule="nonzero"/></clipPath><clipPath id="102ee57a78"><path d="M 0.421875 0.429688 L 3.460938 0.429688 L 3.460938 3.0625 L 0.421875 3.0625 Z M 0.421875 0.429688 " clip-rule="nonzero"/></clipPath><clipPath id="b5d19d2c35"><rect x="0" width="4" y="0" height="4"/></clipPath><clipPath id="df7a5876f7"><path d="M 529.210938 72.429688 L 532.25 72.429688 L 532.25 75.0625 L 529.210938 75.0625 Z M 529.210938 72.429688 " clip-rule="nonzero"/></clipPath><clipPath id="0081823485"><path d="M 0.210938 0.429688 L 3.25 0.429688 L 3.25 3.0625 L 0.210938 3.0625 Z M 0.210938 0.429688 " clip-rule="nonzero"/></clipPath><clipPath id="ab6415ee42"><rect x="0" width="4" y="0" height="4"/></clipPath><clipPath id="4fe38e808f"><path d="M 500.679688 77.421875 L 526.03125 77.421875 L 526.03125 84.921875 L 500.679688 84.921875 Z M 500.679688 77.421875 " clip-rule="nonzero"/></clipPath><clipPath id="c5ee1c16ce"><path d="M 494.421875 80.003906 L 497.460938 80.003906 L 497.460938 82.636719 L 494.421875 82.636719 Z M 494.421875 80.003906 " clip-rule="nonzero"/></clipPath><clipPath id="e40606c64f"><path d="M 0.421875 0.00390625 L 3.460938 0.00390625 L 3.460938 2.636719 L 0.421875 2.636719 Z M 0.421875 0.00390625 " clip-rule="nonzero"/></clipPath><clipPath id="db9b355cf3"><rect x="0" width="4" y="0" height="3"/></clipPath><clipPath id="fd5079a5a9"><path d="M 529.210938 80.003906 L 532.25 80.003906 L 532.25 82.636719 L 529.210938 82.636719 Z M 529.210938 80.003906 " clip-rule="nonzero"/></clipPath><clipPath id="38bd535173"><path d="M 0.210938 0.00390625 L 3.25 0.00390625 L 3.25 2.636719 L 0.210938 2.636719 Z M 0.210938 0.00390625 " clip-rule="nonzero"/></clipPath><clipPath id="271b5086b9"><rect x="0" width="4" y="0" height="3"/></clipPath><clipPath id="fefae591b4"><path d="M 500.679688 85.214844 L 526.03125 85.214844 L 526.03125 92.714844 L 500.679688 92.714844 Z M 500.679688 85.214844 " clip-rule="nonzero"/></clipPath><clipPath id="0c1a027a46"><path d="M 494.421875 87.796875 L 497.460938 87.796875 L 497.460938 90.429688 L 494.421875 90.429688 Z M 494.421875 87.796875 " clip-rule="nonzero"/></clipPath><clipPath id="642ca9993c"><path d="M 0.421875 0.796875 L 3.460938 0.796875 L 3.460938 3.429688 L 0.421875 3.429688 Z M 0.421875 0.796875 " clip-rule="nonzero"/></clipPath><clipPath id="3729e617b2"><rect x="0" width="4" y="0" height="4"/></clipPath><clipPath id="c2aafde5cb"><path d="M 529.210938 87.796875 L 532.25 87.796875 L 532.25 90.429688 L 529.210938 90.429688 Z M 529.210938 87.796875 " clip-rule="nonzero"/></clipPath><clipPath id="f79c02ffc5"><path d="M 0.210938 0.796875 L 3.25 0.796875 L 3.25 3.429688 L 0.210938 3.429688 Z M 0.210938 0.796875 " clip-rule="nonzero"/></clipPath><clipPath id="7a8acaa0b8"><rect x="0" width="4" y="0" height="4"/></clipPath><clipPath id="ef3c99ff38"><path d="M 500.679688 92.585938 L 526.03125 92.585938 L 526.03125 100.085938 L 500.679688 100.085938 Z M 500.679688 92.585938 " clip-rule="nonzero"/></clipPath><clipPath id="b0f4e14c9f"><path d="M 494.421875 95.167969 L 497.460938 95.167969 L 497.460938 97.800781 L 494.421875 97.800781 Z M 494.421875 95.167969 " clip-rule="nonzero"/></clipPath><clipPath id="2ae3a52482"><path d="M 0.421875 0.167969 L 3.460938 0.167969 L 3.460938 2.800781 L 0.421875 2.800781 Z M 0.421875 0.167969 " clip-rule="nonzero"/></clipPath><clipPath id="eacfa6708e"><rect x="0" width="4" y="0" height="3"/></clipPath><clipPath id="4d298f9e6d"><path d="M 529.210938 95.167969 L 532.25 95.167969 L 532.25 97.800781 L 529.210938 97.800781 Z M 529.210938 95.167969 " clip-rule="nonzero"/></clipPath><clipPath id="bd566adcbd"><path d="M 0.210938 0.167969 L 3.25 0.167969 L 3.25 2.800781 L 0.210938 2.800781 Z M 0.210938 0.167969 " clip-rule="nonzero"/></clipPath><clipPath id="ed6c152d0f"><rect x="0" width="4" y="0" height="3"/></clipPath><clipPath id="6bd782e544"><path d="M 500.679688 100.390625 L 526.03125 100.390625 L 526.03125 107.890625 L 500.679688 107.890625 Z M 500.679688 100.390625 " clip-rule="nonzero"/></clipPath><clipPath id="1e24460be0"><path d="M 494.421875 102.96875 L 497.460938 102.96875 L 497.460938 105.601562 L 494.421875 105.601562 Z M 494.421875 102.96875 " clip-rule="nonzero"/></clipPath><clipPath id="2a3a89486f"><path d="M 0.421875 0.96875 L 3.460938 0.96875 L 3.460938 3.601562 L 0.421875 3.601562 Z M 0.421875 0.96875 " clip-rule="nonzero"/></clipPath><clipPath id="9a08021086"><rect x="0" width="4" y="0" height="4"/></clipPath><clipPath id="b1a2ca2ebd"><path d="M 529.210938 102.96875 L 532.25 102.96875 L 532.25 105.601562 L 529.210938 105.601562 Z M 529.210938 102.96875 " clip-rule="nonzero"/></clipPath><clipPath id="d540b2f5e8"><path d="M 0.210938 0.96875 L 3.25 0.96875 L 3.25 3.601562 L 0.210938 3.601562 Z M 0.210938 0.96875 " clip-rule="nonzero"/></clipPath><clipPath id="5ad93add95"><rect x="0" width="4" y="0" height="4"/></clipPath><clipPath id="405be32355"><path d="M 500.679688 108.179688 L 526.03125 108.179688 L 526.03125 115.679688 L 500.679688 115.679688 Z M 500.679688 108.179688 " clip-rule="nonzero"/></clipPath><clipPath id="8855f77607"><path d="M 494.421875 110.761719 L 497.460938 110.761719 L 497.460938 113.394531 L 494.421875 113.394531 Z M 494.421875 110.761719 " clip-rule="nonzero"/></clipPath><clipPath id="8cfb4c9c11"><path d="M 0.421875 0.761719 L 3.460938 0.761719 L 3.460938 3.394531 L 0.421875 3.394531 Z M 0.421875 0.761719 " clip-rule="nonzero"/></clipPath><clipPath id="20f6352b25"><rect x="0" width="4" y="0" height="4"/></clipPath><clipPath id="6fbbd2ed27"><path d="M 529.210938 110.761719 L 532.25 110.761719 L 532.25 113.394531 L 529.210938 113.394531 Z M 529.210938 110.761719 " clip-rule="nonzero"/></clipPath><clipPath id="5a0178a324"><path d="M 0.210938 0.761719 L 3.25 0.761719 L 3.25 3.394531 L 0.210938 3.394531 Z M 0.210938 0.761719 " clip-rule="nonzero"/></clipPath><clipPath id="88747c3737"><rect x="0" width="4" y="0" height="4"/></clipPath><clipPath id="d7abf9803b"><path d="M 500.679688 116.375 L 526.03125 116.375 L 526.03125 123.875 L 500.679688 123.875 Z M 500.679688 116.375 " clip-rule="nonzero"/></clipPath><clipPath id="03029428dc"><path d="M 494.421875 118.957031 L 497.460938 118.957031 L 497.460938 121.589844 L 494.421875 121.589844 Z M 494.421875 118.957031 " clip-rule="nonzero"/></clipPath><clipPath id="07e4407bc4"><path d="M 0.421875 0.957031 L 3.460938 0.957031 L 3.460938 3.589844 L 0.421875 3.589844 Z M 0.421875 0.957031 " clip-rule="nonzero"/></clipPath><clipPath id="bc810f3600"><rect x="0" width="4" y="0" height="4"/></clipPath><clipPath id="881a9abcee"><path d="M 529.210938 118.957031 L 532.25 118.957031 L 532.25 121.589844 L 529.210938 121.589844 Z M 529.210938 118.957031 " clip-rule="nonzero"/></clipPath><clipPath id="628d926189"><path d="M 0.210938 0.957031 L 3.25 0.957031 L 3.25 3.589844 L 0.210938 3.589844 Z M 0.210938 0.957031 " clip-rule="nonzero"/></clipPath><clipPath id="1a1e96fbe4"><rect x="0" width="4" y="0" height="4"/></clipPath></defs><g clip-path="url(#688a4f5ff7)"><path stroke-linecap="butt" transform="matrix(0.75, 0, 0, 0.75, 46.332542, 15.005568)" fill="none" stroke-linejoin="miter" d="M -0.000681396 -0.00221621 L 463.738929 -0.00221621 L 463.738929 161.747793 L -0.000681396 161.747793 Z M -0.000681396 -0.00221621 " stroke="#ffffff" stroke-width="10" stroke-opacity="1" stroke-miterlimit="4"/></g><g transform="matrix(1, 0, 0, 1, 66, 15)"><g clip-path="url(#bab2ac6a75)"><g fill="#ffffff" fill-opacity="1"><g transform="translate(0.726116, 93.046461)"><g><path d="M 3.078125 -69.46875 L 21.4375 -69.46875 C 26.988281 -69.46875 30.945312 -67.675781 33.3125 -64.09375 C 35.6875 -60.507812 36.875 -55.265625 36.875 -48.359375 C 36.875 -41.460938 35.820312 -36.257812 33.71875 -32.75 C 31.625 -29.25 27.851562 -27.5 22.40625 -27.5 L 16.734375 -27.5 L 16.734375 0 L 3.078125 0 Z M 17.546875 -40.03125 C 19.222656 -40.03125 20.453125 -40.335938 21.234375 -40.953125 C 22.015625 -41.578125 22.523438 -42.46875 22.765625 -43.625 C 23.003906 -44.789062 23.125 -46.453125 23.125 -48.609375 C 23.125 -51.515625 22.800781 -53.613281 22.15625 -54.90625 C 21.507812 -56.207031 20.21875 -56.859375 18.28125 -56.859375 L 16.734375 -56.859375 L 16.734375 -40.03125 Z M 17.546875 -40.03125 "/></g></g></g><g fill="#ffffff" fill-opacity="1"><g transform="translate(37.119513, 93.046461)"><g><path d="M 3.078125 0 L 3.078125 -69.46875 L 16.984375 -69.46875 L 16.984375 -11.8125 L 31.296875 -11.8125 L 31.296875 0 Z M 3.078125 0 "/></g></g></g><g fill="#ffffff" fill-opacity="1"><g transform="translate(67.447333, 93.046461)"><g><path d="M 19.25 0.640625 C 14.175781 0.640625 10.113281 -0.945312 7.0625 -4.125 C 4.019531 -7.300781 2.5 -11.664062 2.5 -17.21875 L 2.5 -49.25 C 2.5 -56.15625 3.875 -61.359375 6.625 -64.859375 C 9.375 -68.367188 13.691406 -70.125 19.578125 -70.125 C 24.691406 -70.125 28.8125 -68.71875 31.9375 -65.90625 C 35.070312 -63.101562 36.640625 -59.0625 36.640625 -53.78125 L 36.640625 -41.8125 L 22.8125 -41.8125 L 22.8125 -52.078125 C 22.8125 -54.078125 22.566406 -55.453125 22.078125 -56.203125 C 21.585938 -56.960938 20.753906 -57.34375 19.578125 -57.34375 C 18.335938 -57.34375 17.488281 -56.910156 17.03125 -56.046875 C 16.570312 -55.179688 16.34375 -53.914062 16.34375 -52.25 L 16.34375 -17.390625 C 16.34375 -15.554688 16.609375 -14.21875 17.140625 -13.375 C 17.679688 -12.539062 18.492188 -12.125 19.578125 -12.125 C 21.734375 -12.125 22.8125 -13.878906 22.8125 -17.390625 L 22.8125 -29.921875 L 36.796875 -29.921875 L 36.796875 -16.828125 C 36.796875 -5.179688 30.945312 0.640625 19.25 0.640625 Z M 19.25 0.640625 "/></g></g></g><g fill="#ffffff" fill-opacity="1"><g transform="translate(104.002481, 93.046461)"><g/></g></g><g fill="#ffffff" fill-opacity="1"><g transform="translate(121.14778, 93.046461)"><g><path d="M 2.34375 -20.140625 L 2.34375 -29.28125 L 22.71875 -29.28125 L 22.71875 -20.140625 Z M 2.34375 -20.140625 "/></g></g></g><g fill="#ffffff" fill-opacity="1"><g transform="translate(144.520407, 93.046461)"><g/></g></g><g fill="#ffffff" fill-opacity="1"><g transform="translate(161.665698, 93.046461)"><g><path d="M 1.296875 0 L 1.296875 -12.609375 L 17.140625 -56.6875 L 2.828125 -56.6875 L 2.828125 -69.46875 L 31.859375 -69.46875 L 31.859375 -57.34375 L 15.609375 -12.78125 L 31.140625 -12.78125 L 31.140625 0 Z M 1.296875 0 "/></g></g></g><g fill="#ffffff" fill-opacity="1"><g transform="translate(193.044894, 93.046461)"><g><path d="M 20.0625 0.640625 C 8.25 0.640625 2.34375 -5.476562 2.34375 -17.71875 L 2.34375 -41.484375 C 2.34375 -47.097656 3.921875 -51.5625 7.078125 -54.875 C 10.234375 -58.1875 14.5625 -59.84375 20.0625 -59.84375 C 25.5625 -59.84375 29.882812 -58.1875 33.03125 -54.875 C 36.1875 -51.5625 37.765625 -47.097656 37.765625 -41.484375 L 37.765625 -17.71875 C 37.765625 -5.476562 31.863281 0.640625 20.0625 0.640625 Z M 20.0625 -10.265625 C 21.1875 -10.265625 22.019531 -10.671875 22.5625 -11.484375 C 23.101562 -12.296875 23.375 -13.398438 23.375 -14.796875 L 23.375 -43.75 C 23.375 -47.195312 22.269531 -48.921875 20.0625 -48.921875 C 17.84375 -48.921875 16.734375 -47.195312 16.734375 -43.75 L 16.734375 -14.796875 C 16.734375 -13.398438 17.003906 -12.296875 17.546875 -11.484375 C 18.085938 -10.671875 18.925781 -10.265625 20.0625 -10.265625 Z M 20.0625 -10.265625 "/></g></g></g><g fill="#ffffff" fill-opacity="1"><g transform="translate(231.46015, 93.046461)"><g><path d="M 2.828125 -59.203125 L 16.984375 -59.203125 L 16.984375 -51.671875 C 17.578125 -54.097656 18.597656 -56.066406 20.046875 -57.578125 C 21.503906 -59.085938 23.445312 -59.84375 25.875 -59.84375 C 29.863281 -59.84375 32.816406 -58.613281 34.734375 -56.15625 C 36.648438 -53.707031 37.609375 -50.21875 37.609375 -45.6875 L 37.609375 0 L 23.703125 0 L 23.703125 -44.234375 C 23.703125 -45.523438 23.441406 -46.628906 22.921875 -47.546875 C 22.410156 -48.460938 21.617188 -48.921875 20.546875 -48.921875 C 19.085938 -48.921875 18.128906 -48.257812 17.671875 -46.9375 C 17.210938 -45.625 16.984375 -43.863281 16.984375 -41.65625 L 16.984375 0 L 2.828125 0 Z M 2.828125 -59.203125 "/></g></g></g><g fill="#ffffff" fill-opacity="1"><g transform="translate(270.037156, 93.046461)"><g><path d="M 19.40625 0.640625 C 13.3125 0.640625 8.941406 -1.023438 6.296875 -4.359375 C 3.660156 -7.703125 2.34375 -12.691406 2.34375 -19.328125 L 2.34375 -43.109375 C 2.34375 -48.554688 3.90625 -52.707031 7.03125 -55.5625 C 10.164062 -58.414062 14.535156 -59.84375 20.140625 -59.84375 C 31.515625 -59.84375 37.203125 -54.265625 37.203125 -43.109375 L 37.203125 -38.8125 C 37.203125 -34.5 37.148438 -31 37.046875 -28.3125 L 16.5 -28.3125 L 16.5 -16.828125 C 16.5 -14.773438 16.710938 -13.164062 17.140625 -12 C 17.578125 -10.84375 18.492188 -10.265625 19.890625 -10.265625 C 20.972656 -10.265625 21.742188 -10.585938 22.203125 -11.234375 C 22.660156 -11.890625 22.925781 -12.632812 23 -13.46875 C 23.082031 -14.300781 23.125 -15.523438 23.125 -17.140625 L 23.125 -22.890625 L 37.203125 -22.890625 L 37.203125 -19.484375 C 37.203125 -12.585938 35.867188 -7.507812 33.203125 -4.25 C 30.535156 -0.988281 25.9375 0.640625 19.40625 0.640625 Z M 23.125 -35.34375 L 23.125 -42.9375 C 23.125 -47.195312 22.070312 -49.328125 19.96875 -49.328125 C 17.601562 -49.328125 16.421875 -47.195312 16.421875 -42.9375 L 16.421875 -35.34375 Z M 23.125 -35.34375 "/></g></g></g></g></g><g clip-path="url(#95646d8c9e)"><path stroke-linecap="butt" transform="matrix(0.75, 0, 0, 0.75, 391.510324, 15.005568)" fill="none" stroke-linejoin="miter" d="M 0.00185998 -0.00221621 L 252.746666 -0.00221621 L 252.746666 161.747793 L 0.00185998 161.747793 Z M 0.00185998 -0.00221621 " stroke="#ffffff" stroke-width="10" stroke-opacity="1" stroke-miterlimit="4"/></g><path stroke-linecap="butt" transform="matrix(-0.00278352, 0.749995, -0.749995, -0.00278352, 443.943315, 15.013551)" fill="none" stroke-linejoin="miter" d="M -0.000219179 2.00256 L 161.756117 2.001183 " stroke="#ffffff" stroke-width="4" stroke-opacity="1" stroke-miterlimit="4"/><path stroke-linecap="butt" transform="matrix(0, 0.75, -0.75, 0, 492.462336, 15.007565)" fill="none" stroke-linejoin="miter" d="M 0.000329727 2.001865 L 161.755547 2.001865 " stroke="#ffffff" stroke-width="4" stroke-opacity="1" stroke-miterlimit="4"/><path stroke-linecap="butt" transform="matrix(0, 0.75, -0.75, 0, 537.204166, 15.007565)" fill="none" stroke-linejoin="miter" d="M 0.000329727 2.001388 L 161.755547 2.001388 " stroke="#ffffff" stroke-width="4" stroke-opacity="1" stroke-miterlimit="4"/><g clip-path="url(#8abf4b5735)"><path stroke-linecap="butt" transform="matrix(0.75, 0, 0, 0.75, 450.691995, 18.517279)" fill="none" stroke-linejoin="miter" d="M -0.000784613 -0.00220587 L 42.759635 -0.00220587 L 42.759635 11.497795 L -0.000784613 11.497795 Z M -0.000784613 -0.00220587 " stroke="#ffffff" stroke-width="4" stroke-opacity="1" stroke-miterlimit="4"/></g><g clip-path="url(#40c4608526)"><g transform="matrix(1, 0, 0, 1, 465, 21)"><g clip-path="url(#37074263a4)"><g clip-path="url(#c03d1bc7f9)"><path fill="#ffffff" d="M 0.207031 0.515625 L 3.242188 0.515625 L 3.242188 3.148438 L 0.207031 3.148438 Z M 0.207031 0.515625 " fill-opacity="1" fill-rule="nonzero"/></g></g></g></g><g clip-path="url(#ffbbfd73eb)"><g transform="matrix(1, 0, 0, 1, 473, 21)"><g clip-path="url(#98705fb23c)"><g clip-path="url(#9c79e19938)"><path fill="#ffffff" d="M 0.105469 0.515625 L 3.140625 0.515625 L 3.140625 3.148438 L 0.105469 3.148438 Z M 0.105469 0.515625 " fill-opacity="1" fill-rule="nonzero"/></g></g></g></g><g clip-path="url(#39e07e31a3)"><g transform="matrix(1, 0, 0, 1, 457, 21)"><g clip-path="url(#7caeda6db6)"><g clip-path="url(#c902fb96dc)"><path fill="#ffffff" d="M 0.429688 0.515625 L 3.464844 0.515625 L 3.464844 3.148438 L 0.429688 3.148438 Z M 0.429688 0.515625 " fill-opacity="1" fill-rule="nonzero"/></g></g></g></g><g clip-path="url(#b5c8e77a1b)"><path stroke-linecap="butt" transform="matrix(0.75, 0, 0, 0.75, 401.374026, 18.517279)" fill="none" stroke-linejoin="miter" d="M 0.00129922 -0.00220587 L 42.75651 -0.00220587 L 42.75651 11.497795 L 0.00129922 11.497795 Z M 0.00129922 -0.00220587 " stroke="#ffffff" stroke-width="4" stroke-opacity="1" stroke-miterlimit="4"/></g><g clip-path="url(#60b05ea0ad)"><g transform="matrix(1, 0, 0, 1, 415, 21)"><g clip-path="url(#866a1b4bab)"><g clip-path="url(#457ee6a2a0)"><path fill="#ffffff" d="M 0.890625 0.515625 L 3.925781 0.515625 L 3.925781 3.148438 L 0.890625 3.148438 Z M 0.890625 0.515625 " fill-opacity="1" fill-rule="nonzero"/></g></g></g></g><g clip-path="url(#4cf7dc791a)"><g transform="matrix(1, 0, 0, 1, 423, 21)"><g clip-path="url(#7b1edea3f7)"><g clip-path="url(#c5b9940fd2)"><path fill="#ffffff" d="M 0.789062 0.515625 L 3.824219 0.515625 L 3.824219 3.148438 L 0.789062 3.148438 Z M 0.789062 0.515625 " fill-opacity="1" fill-rule="nonzero"/></g></g></g></g><g clip-path="url(#a4f3c944b9)"><g transform="matrix(1, 0, 0, 1, 408, 21)"><g clip-path="url(#8ca69fc3fa)"><g clip-path="url(#798fbffa05)"><path fill="#ffffff" d="M 0.113281 0.515625 L 3.148438 0.515625 L 3.148438 3.148438 L 0.113281 3.148438 Z M 0.113281 0.515625 " fill-opacity="1" fill-rule="nonzero"/></g></g></g></g><g clip-path="url(#71c0d3d70e)"><path stroke-linecap="butt" transform="matrix(0.75, 0, 0, 0.75, 497.299128, 18.517279)" fill="none" stroke-linejoin="miter" d="M 0.00220435 -0.00220587 L 42.757415 -0.00220587 L 42.757415 11.497795 L 0.00220435 11.497795 Z M 0.00220435 -0.00220587 " stroke="#ffffff" stroke-width="4" stroke-opacity="1" stroke-miterlimit="4"/></g><g clip-path="url(#9fade3a297)"><g transform="matrix(1, 0, 0, 1, 511, 21)"><g clip-path="url(#fa1e0d9a76)"><g clip-path="url(#3f374022e2)"><path fill="#ffffff" d="M 0.816406 0.515625 L 3.851562 0.515625 L 3.851562 3.148438 L 0.816406 3.148438 Z M 0.816406 0.515625 " fill-opacity="1" fill-rule="nonzero"/></g></g></g></g><g clip-path="url(#e14b6eda16)"><g transform="matrix(1, 0, 0, 1, 519, 21)"><g clip-path="url(#56770895ca)"><g clip-path="url(#f07f3387ff)"><path fill="#ffffff" d="M 0.714844 0.515625 L 3.75 0.515625 L 3.75 3.148438 L 0.714844 3.148438 Z M 0.714844 0.515625 " fill-opacity="1" fill-rule="nonzero"/></g></g></g></g><g clip-path="url(#d13d7d84e1)"><g transform="matrix(1, 0, 0, 1, 504, 21)"><g clip-path="url(#b5b8fef151)"><g clip-path="url(#636a7fb407)"><path fill="#ffffff" d="M 0.0390625 0.515625 L 3.074219 0.515625 L 3.074219 3.148438 L 0.0390625 3.148438 Z M 0.0390625 0.515625 " fill-opacity="1" fill-rule="nonzero"/></g></g></g></g><g clip-path="url(#e769cfa535)"><path stroke-linecap="butt" transform="matrix(0.75, 0, 0, 0.75, 542.296485, 18.517279)" fill="none" stroke-linejoin="miter" d="M 0.000519512 -0.00220587 L 42.760939 -0.00220587 L 42.760939 11.497795 L 0.000519512 11.497795 Z M 0.000519512 -0.00220587 " stroke="#ffffff" stroke-width="4" stroke-opacity="1" stroke-miterlimit="4"/></g><g clip-path="url(#2e9a2e4f2f)"><g transform="matrix(1, 0, 0, 1, 556, 21)"><g clip-path="url(#6da32bf8b5)"><g clip-path="url(#f2756a0bb0)"><path fill="#ffffff" d="M 0.8125 0.515625 L 3.847656 0.515625 L 3.847656 3.148438 L 0.8125 3.148438 Z M 0.8125 0.515625 " fill-opacity="1" fill-rule="nonzero"/></g></g></g></g><g clip-path="url(#c86d4d8378)"><g transform="matrix(1, 0, 0, 1, 564, 21)"><g clip-path="url(#12cb97496e)"><g clip-path="url(#819222353d)"><path fill="#ffffff" d="M 0.710938 0.515625 L 3.746094 0.515625 L 3.746094 3.148438 L 0.710938 3.148438 Z M 0.710938 0.515625 " fill-opacity="1" fill-rule="nonzero"/></g></g></g></g><g clip-path="url(#8d77506aaf)"><g transform="matrix(1, 0, 0, 1, 549, 21)"><g clip-path="url(#4d2d6f2623)"><g clip-path="url(#0ba4c41a11)"><path fill="#ffffff" d="M 0.0351562 0.515625 L 3.070312 0.515625 L 3.070312 3.148438 L 0.0351562 3.148438 Z M 0.0351562 0.515625 " fill-opacity="1" fill-rule="nonzero"/></g></g></g></g><g clip-path="url(#2eaf1fdec8)"><g transform="matrix(1, 0, 0, 1, 447, 30)"><g clip-path="url(#2be09b550b)"><g clip-path="url(#359b7da664)"><path fill="#ffffff" d="M 0.308594 0.886719 L 39.101562 0.886719 L 39.101562 51.347656 L 0.308594 51.347656 Z M 0.308594 0.886719 " fill-opacity="1" fill-rule="nonzero"/></g></g></g></g><g clip-path="url(#f8ec5e2472)"><g clip-path="url(#5e04866a7e)"><g transform="matrix(1, 0, 0, 1, 449, 32)"><g clip-path="url(#af8126375d)"><g clip-path="url(#ab6f38dc0f)"><g clip-path="url(#cff9ec7f84)"><path fill="#ffffff" d="M 0.613281 0.875 L 34.796875 0.875 L 34.796875 47.34375 L 0.613281 47.34375 Z M 0.613281 0.875 " fill-opacity="1" fill-rule="nonzero"/></g></g></g></g></g></g><g clip-path="url(#0f64bccf8d)"><g clip-path="url(#c0aa3d0f96)"><path stroke-linecap="butt" transform="matrix(0.75, 0, 0, 0.75, 449.617059, 32.876803)" fill="none" stroke-linejoin="miter" d="M 5.000172 -0.00240406 L 40.567882 -0.00240406 C 41.896007 -0.00240406 43.166841 0.528846 44.104341 1.466346 C 45.041841 2.403846 45.567883 3.674679 45.567883 4.997596 L 45.567883 56.924683 C 45.567883 58.247599 45.041841 59.518433 44.104341 60.455933 C 43.166841 61.393433 41.896007 61.919475 40.567882 61.919475 L 5.000172 61.919475 C 3.672047 61.919475 2.401213 61.393433 1.463713 60.455933 C 0.526213 59.518433 0.000171637 58.247599 0.000171637 56.924683 L 0.000171637 4.997596 C 0.000171637 3.674679 0.526213 2.403846 1.463713 1.466346 C 2.401213 0.528846 3.672047 -0.00240406 5.000172 -0.00240406 Z M 5.000172 -0.00240406 " stroke="#0d6efd" stroke-width="4" stroke-opacity="1" stroke-miterlimit="4"/></g></g><g clip-path="url(#788379d69d)"><g clip-path="url(#5e7bc40a9a)"><path stroke-linecap="butt" transform="matrix(0.75, 0, 0, 0.75, 459.45749, 87.964163)" fill="none" stroke-linejoin="miter" d="M 4.99418 0.000907308 L 14.317097 0.000907308 C 15.640014 0.000907308 16.910847 0.526949 17.848347 1.464449 C 18.785847 2.401949 19.311889 3.672783 19.311889 4.995699 L 19.311889 47.198827 C 19.311889 48.521743 18.785847 49.792577 17.848347 50.730077 C 16.910847 51.667577 15.640014 52.193619 14.317097 52.193619 L 4.99418 52.193619 C 3.671263 52.193619 2.40043 51.667577 1.46293 50.730077 C 0.52543 49.792577 -0.000611931 48.521743 -0.000611931 47.198827 L -0.000611931 4.995699 C -0.000611931 3.672783 0.52543 2.401949 1.46293 1.464449 C 2.40043 0.526949 3.671263 0.000907308 4.99418 0.000907308 Z M 4.99418 0.000907308 " stroke="#ffffff" stroke-width="4" stroke-opacity="1" stroke-miterlimit="4"/></g></g><g clip-path="url(#3077bef826)"><g clip-path="url(#978b063c35)"><path stroke-linecap="butt" transform="matrix(0, 0.75, -0.75, 0, 486.522745, 100.296119)" fill="none" stroke-linejoin="miter" d="M 4.995801 -0.000923841 L 14.318718 -0.000923841 C 15.641635 -0.000923841 16.912468 0.525118 17.849968 1.462618 C 18.787468 2.400118 19.31351 3.670951 19.31351 4.993868 L 19.31351 47.806371 C 19.31351 49.129287 18.787468 50.400121 17.849968 51.337621 C 16.912468 52.275121 15.641635 52.801163 14.318718 52.801163 L 4.995801 52.801163 C 3.672884 52.801163 2.40205 52.275121 1.46455 51.337621 C 0.52705 50.400121 0.0010086 49.129287 0.0010086 47.806371 L 0.0010086 4.993868 C 0.0010086 3.670951 0.52705 2.400118 1.46455 1.462618 C 2.40205 0.525118 3.672884 -0.000923841 4.995801 -0.000923841 Z M 4.995801 -0.000923841 " stroke="#ffffff" stroke-width="4" stroke-opacity="1" stroke-miterlimit="4"/></g></g><g clip-path="url(#52c50ae821)"><g clip-path="url(#b25834e8ea)"><g transform="matrix(1, 0, 0, 1, 463, 91)"><g clip-path="url(#9f7bbd7186)"><g clip-path="url(#a5ba4d211e)"><g clip-path="url(#8f60c3ff1a)"><path fill="#ffffff" d="M 0.46875 0.730469 L 6.996094 0.730469 L 6.996094 6.429688 L 0.46875 6.429688 Z M 0.46875 0.730469 " fill-opacity="1" fill-rule="nonzero"/></g></g></g></g></g></g><g clip-path="url(#2ae40e5e8a)"><g clip-path="url(#55ba669c9f)"><g transform="matrix(1, 0, 0, 1, 463, 117)"><g clip-path="url(#ab23d92a01)"><g clip-path="url(#0786b725c0)"><g clip-path="url(#21ba9699be)"><path fill="#ffffff" d="M 6.972656 6.117188 L 0.449219 6.117188 L 0.449219 0.417969 L 6.972656 0.417969 Z M 6.972656 6.117188 " fill-opacity="1" fill-rule="nonzero"/></g></g></g></g></g></g><g clip-path="url(#a79b625bdb)"><g clip-path="url(#f0d2230d38)"><g transform="matrix(1, 0, 0, 1, 450, 104)"><g clip-path="url(#25da5ea64e)"><g clip-path="url(#a629376a2c)"><g clip-path="url(#786a901214)"><path fill="#ffffff" d="M 0.679688 6.792969 L 0.679688 0.265625 L 6.382812 0.265625 L 6.382812 6.792969 Z M 0.679688 6.792969 " fill-opacity="1" fill-rule="nonzero"/></g></g></g></g></g></g><g clip-path="url(#227cfdd5df)"><g clip-path="url(#24d7d42d49)"><g transform="matrix(1, 0, 0, 1, 477, 104)"><g clip-path="url(#b89384ec35)"><g clip-path="url(#321661f0ed)"><g clip-path="url(#efb74ee07a)"><path fill="#ffffff" d="M 5.804688 0.289062 L 5.804688 6.8125 L 0.105469 6.8125 L 0.105469 0.289062 Z M 5.804688 0.289062 " fill-opacity="1" fill-rule="nonzero"/></g></g></g></g></g></g><g clip-path="url(#ce822c5abc)"><path stroke-linecap="butt" transform="matrix(0.75, 0, 0, 0.75, 500.680416, 38.679649)" fill="none" stroke-linejoin="miter" d="M -0.000971058 0.0000507684 L 33.801114 0.0000507684 L 33.801114 10.375051 L -0.000971058 10.375051 Z M -0.000971058 0.0000507684 " stroke="#ffffff" stroke-width="4" stroke-opacity="1" stroke-miterlimit="4"/></g><g clip-path="url(#a590dfc8ef)"><g transform="matrix(1, 0, 0, 1, 494, 41)"><g clip-path="url(#191f1b0763)"><g clip-path="url(#f657201b5e)"><path fill="#ffffff" d="M 0.421875 0.257812 L 3.457031 0.257812 L 3.457031 2.890625 L 0.421875 2.890625 Z M 0.421875 0.257812 " fill-opacity="1" fill-rule="nonzero"/></g></g></g></g><g clip-path="url(#cc850348fa)"><g transform="matrix(1, 0, 0, 1, 529, 41)"><g clip-path="url(#23b5abc7e6)"><g clip-path="url(#3e8d0e842b)"><path fill="#ffffff" d="M 0.210938 0.257812 L 3.242188 0.257812 L 3.242188 2.890625 L 0.210938 2.890625 Z M 0.210938 0.257812 " fill-opacity="1" fill-rule="nonzero"/></g></g></g></g><g clip-path="url(#2044ded1f6)"><path stroke-linecap="butt" transform="matrix(0.75, 0, 0, 0.75, 500.680416, 30.886996)" fill="none" stroke-linejoin="miter" d="M -0.000971058 -0.000369718 L 33.801114 -0.000369718 L 33.801114 10.374631 L -0.000971058 10.374631 Z M -0.000971058 -0.000369718 " stroke="#ffffff" stroke-width="4" stroke-opacity="1" stroke-miterlimit="4"/></g><g clip-path="url(#cb3056fc4b)"><g transform="matrix(1, 0, 0, 1, 494, 33)"><g clip-path="url(#ad2ce43bb0)"><g clip-path="url(#0e18f24208)"><path fill="#ffffff" d="M 0.421875 0.46875 L 3.457031 0.46875 L 3.457031 3.101562 L 0.421875 3.101562 Z M 0.421875 0.46875 " fill-opacity="1" fill-rule="nonzero"/></g></g></g></g><g clip-path="url(#5fb320a713)"><g transform="matrix(1, 0, 0, 1, 529, 33)"><g clip-path="url(#8ea6156f98)"><g clip-path="url(#94f18a91ed)"><path fill="#ffffff" d="M 0.210938 0.46875 L 3.242188 0.46875 L 3.242188 3.101562 L 0.210938 3.101562 Z M 0.210938 0.46875 " fill-opacity="1" fill-rule="nonzero"/></g></g></g></g><g clip-path="url(#de62bcd6de)"><path stroke-linecap="butt" transform="matrix(0.75, 0, 0, 0.75, 500.680416, 46.472303)" fill="none" stroke-linejoin="miter" d="M -0.000971058 0.000470615 L 33.801114 0.000470615 L 33.801114 10.375471 L -0.000971058 10.375471 Z M -0.000971058 0.000470615 " stroke="#ffffff" stroke-width="4" stroke-opacity="1" stroke-miterlimit="4"/></g><g clip-path="url(#1fff49852c)"><g transform="matrix(1, 0, 0, 1, 494, 49)"><g clip-path="url(#c3ef6aec31)"><g clip-path="url(#b76ed63911)"><path fill="#ffffff" d="M 0.421875 0.0507812 L 3.457031 0.0507812 L 3.457031 2.683594 L 0.421875 2.683594 Z M 0.421875 0.0507812 " fill-opacity="1" fill-rule="nonzero"/></g></g></g></g><g clip-path="url(#162ae80229)"><g transform="matrix(1, 0, 0, 1, 529, 49)"><g clip-path="url(#4589532924)"><g clip-path="url(#bfe744b080)"><path fill="#ffffff" d="M 0.210938 0.0507812 L 3.242188 0.0507812 L 3.242188 2.683594 L 0.210938 2.683594 Z M 0.210938 0.0507812 " fill-opacity="1" fill-rule="nonzero"/></g></g></g></g><g clip-path="url(#ed4a92527d)"><path stroke-linecap="butt" transform="matrix(0.75, 0, 0, 0.75, 500.680416, 54.264952)" fill="none" stroke-linejoin="miter" d="M -0.000971058 0.000897821 L 33.801114 0.000897821 L 33.801114 10.375898 L -0.000971058 10.375898 Z M -0.000971058 0.000897821 " stroke="#ffffff" stroke-width="4" stroke-opacity="1" stroke-miterlimit="4"/></g><g clip-path="url(#05380dbae8)"><g transform="matrix(1, 0, 0, 1, 494, 56)"><g clip-path="url(#e7189d48aa)"><g clip-path="url(#3a8230f7b2)"><path fill="#ffffff" d="M 0.421875 0.84375 L 3.457031 0.84375 L 3.457031 3.476562 L 0.421875 3.476562 Z M 0.421875 0.84375 " fill-opacity="1" fill-rule="nonzero"/></g></g></g></g><g clip-path="url(#c80128b1fa)"><g transform="matrix(1, 0, 0, 1, 529, 56)"><g clip-path="url(#6e89d8efdf)"><g clip-path="url(#b9295bb6b0)"><path fill="#ffffff" d="M 0.210938 0.84375 L 3.242188 0.84375 L 3.242188 3.476562 L 0.210938 3.476562 Z M 0.210938 0.84375 " fill-opacity="1" fill-rule="nonzero"/></g></g></g></g><g clip-path="url(#2e68cc903c)"><path stroke-linecap="butt" transform="matrix(0.75, 0, 0, 0.75, 500.680416, 62.057612)" fill="none" stroke-linejoin="miter" d="M -0.000971058 0.00130903 L 33.801114 0.00130903 L 33.801114 10.37631 L -0.000971058 10.37631 Z M -0.000971058 0.00130903 " stroke="#ffffff" stroke-width="4" stroke-opacity="1" stroke-miterlimit="4"/></g><g clip-path="url(#b5e92ba53c)"><g transform="matrix(1, 0, 0, 1, 494, 64)"><g clip-path="url(#159d4125b0)"><g clip-path="url(#3afc50def8)"><path fill="#ffffff" d="M 0.421875 0.636719 L 3.457031 0.636719 L 3.457031 3.269531 L 0.421875 3.269531 Z M 0.421875 0.636719 " fill-opacity="1" fill-rule="nonzero"/></g></g></g></g><g clip-path="url(#ea7d1464aa)"><g transform="matrix(1, 0, 0, 1, 529, 64)"><g clip-path="url(#fc12377d4e)"><g clip-path="url(#2c82061495)"><path fill="#ffffff" d="M 0.210938 0.636719 L 3.242188 0.636719 L 3.242188 3.269531 L 0.210938 3.269531 Z M 0.210938 0.636719 " fill-opacity="1" fill-rule="nonzero"/></g></g></g></g><g clip-path="url(#7633977bc9)"><path stroke-linecap="butt" transform="matrix(0.75, 0, 0, 0.75, 500.680416, 69.850268)" fill="none" stroke-linejoin="miter" d="M -0.000971058 0.00172663 L 33.801114 0.00172663 L 33.801114 10.376727 L -0.000971058 10.376727 Z M -0.000971058 0.00172663 " stroke="#ffffff" stroke-width="4" stroke-opacity="1" stroke-miterlimit="4"/></g><g clip-path="url(#5c94c3cee0)"><g transform="matrix(1, 0, 0, 1, 494, 72)"><g clip-path="url(#b5d19d2c35)"><g clip-path="url(#102ee57a78)"><path fill="#ffffff" d="M 0.421875 0.429688 L 3.457031 0.429688 L 3.457031 3.0625 L 0.421875 3.0625 Z M 0.421875 0.429688 " fill-opacity="1" fill-rule="nonzero"/></g></g></g></g><g clip-path="url(#df7a5876f7)"><g transform="matrix(1, 0, 0, 1, 529, 72)"><g clip-path="url(#ab6415ee42)"><g clip-path="url(#0081823485)"><path fill="#ffffff" d="M 0.210938 0.429688 L 3.242188 0.429688 L 3.242188 3.0625 L 0.210938 3.0625 Z M 0.210938 0.429688 " fill-opacity="1" fill-rule="nonzero"/></g></g></g></g><g clip-path="url(#4fe38e808f)"><path stroke-linecap="butt" transform="matrix(0.75, 0, 0, 0.75, 500.680416, 77.422701)" fill="none" stroke-linejoin="miter" d="M -0.000971058 -0.00110198 L 33.801114 -0.00110198 L 33.801114 10.373899 L -0.000971058 10.373899 Z M -0.000971058 -0.00110198 " stroke="#ffffff" stroke-width="4" stroke-opacity="1" stroke-miterlimit="4"/></g><g clip-path="url(#c5ee1c16ce)"><g transform="matrix(1, 0, 0, 1, 494, 80)"><g clip-path="url(#db9b355cf3)"><g clip-path="url(#e40606c64f)"><path fill="#ffffff" d="M 0.421875 0.00390625 L 3.457031 0.00390625 L 3.457031 2.636719 L 0.421875 2.636719 Z M 0.421875 0.00390625 " fill-opacity="1" fill-rule="nonzero"/></g></g></g></g><g clip-path="url(#fd5079a5a9)"><g transform="matrix(1, 0, 0, 1, 529, 80)"><g clip-path="url(#271b5086b9)"><g clip-path="url(#38bd535173)"><path fill="#ffffff" d="M 0.210938 0.00390625 L 3.242188 0.00390625 L 3.242188 2.636719 L 0.210938 2.636719 Z M 0.210938 0.00390625 " fill-opacity="1" fill-rule="nonzero"/></g></g></g></g><g clip-path="url(#fefae591b4)"><path stroke-linecap="butt" transform="matrix(0.75, 0, 0, 0.75, 500.680416, 85.215364)" fill="none" stroke-linejoin="miter" d="M -0.000971058 -0.000693972 L 33.801114 -0.000693972 L 33.801114 10.374307 L -0.000971058 10.374307 Z M -0.000971058 -0.000693972 " stroke="#ffffff" stroke-width="4" stroke-opacity="1" stroke-miterlimit="4"/></g><g clip-path="url(#0c1a027a46)"><g transform="matrix(1, 0, 0, 1, 494, 87)"><g clip-path="url(#3729e617b2)"><g clip-path="url(#642ca9993c)"><path fill="#ffffff" d="M 0.421875 0.796875 L 3.457031 0.796875 L 3.457031 3.429688 L 0.421875 3.429688 Z M 0.421875 0.796875 " fill-opacity="1" fill-rule="nonzero"/></g></g></g></g><g clip-path="url(#c2aafde5cb)"><g transform="matrix(1, 0, 0, 1, 529, 87)"><g clip-path="url(#7a8acaa0b8)"><g clip-path="url(#f79c02ffc5)"><path fill="#ffffff" d="M 0.210938 0.796875 L 3.242188 0.796875 L 3.242188 3.429688 L 0.210938 3.429688 Z M 0.210938 0.796875 " fill-opacity="1" fill-rule="nonzero"/></g></g></g></g><g clip-path="url(#ef3c99ff38)"><path stroke-linecap="butt" transform="matrix(0.75, 0, 0, 0.75, 500.680416, 92.587021)" fill="none" stroke-linejoin="miter" d="M -0.000971058 -0.0014452 L 33.801114 -0.0014452 L 33.801114 10.373555 L -0.000971058 10.373555 Z M -0.000971058 -0.0014452 " stroke="#ffffff" stroke-width="4" stroke-opacity="1" stroke-miterlimit="4"/></g><g clip-path="url(#b0f4e14c9f)"><g transform="matrix(1, 0, 0, 1, 494, 95)"><g clip-path="url(#eacfa6708e)"><g clip-path="url(#2ae3a52482)"><path fill="#ffffff" d="M 0.421875 0.167969 L 3.457031 0.167969 L 3.457031 2.800781 L 0.421875 2.800781 Z M 0.421875 0.167969 " fill-opacity="1" fill-rule="nonzero"/></g></g></g></g><g clip-path="url(#4d298f9e6d)"><g transform="matrix(1, 0, 0, 1, 529, 95)"><g clip-path="url(#ed6c152d0f)"><g clip-path="url(#bd566adcbd)"><path fill="#ffffff" d="M 0.210938 0.167969 L 3.242188 0.167969 L 3.242188 2.800781 L 0.210938 2.800781 Z M 0.210938 0.167969 " fill-opacity="1" fill-rule="nonzero"/></g></g></g></g><g clip-path="url(#6bd782e544)"><path stroke-linecap="butt" transform="matrix(0.75, 0, 0, 0.75, 500.680416, 100.388735)" fill="none" stroke-linejoin="miter" d="M -0.000971058 0.00252061 L 33.801114 0.00252061 L 33.801114 10.377521 L -0.000971058 10.377521 Z M -0.000971058 0.00252061 " stroke="#ffffff" stroke-width="4" stroke-opacity="1" stroke-miterlimit="4"/></g><g clip-path="url(#1e24460be0)"><g transform="matrix(1, 0, 0, 1, 494, 102)"><g clip-path="url(#9a08021086)"><g clip-path="url(#2a3a89486f)"><path fill="#ffffff" d="M 0.421875 0.96875 L 3.457031 0.96875 L 3.457031 3.601562 L 0.421875 3.601562 Z M 0.421875 0.96875 " fill-opacity="1" fill-rule="nonzero"/></g></g></g></g><g clip-path="url(#b1a2ca2ebd)"><g transform="matrix(1, 0, 0, 1, 529, 102)"><g clip-path="url(#5ad93add95)"><g clip-path="url(#d540b2f5e8)"><path fill="#ffffff" d="M 0.210938 0.96875 L 3.242188 0.96875 L 3.242188 3.601562 L 0.210938 3.601562 Z M 0.210938 0.96875 " fill-opacity="1" fill-rule="nonzero"/></g></g></g></g><g clip-path="url(#405be32355)"><path stroke-linecap="butt" transform="matrix(0.75, 0, 0, 0.75, 500.680416, 108.181395)" fill="none" stroke-linejoin="miter" d="M -0.000971058 -0.00227652 L 33.801114 -0.00227652 L 33.801114 10.372724 L -0.000971058 10.372724 Z M -0.000971058 -0.00227652 " stroke="#ffffff" stroke-width="4" stroke-opacity="1" stroke-miterlimit="4"/></g><g clip-path="url(#8855f77607)"><g transform="matrix(1, 0, 0, 1, 494, 110)"><g clip-path="url(#20f6352b25)"><g clip-path="url(#8cfb4c9c11)"><path fill="#ffffff" d="M 0.421875 0.761719 L 3.457031 0.761719 L 3.457031 3.394531 L 0.421875 3.394531 Z M 0.421875 0.761719 " fill-opacity="1" fill-rule="nonzero"/></g></g></g></g><g clip-path="url(#6fbbd2ed27)"><g transform="matrix(1, 0, 0, 1, 529, 110)"><g clip-path="url(#88747c3737)"><g clip-path="url(#5a0178a324)"><path fill="#ffffff" d="M 0.210938 0.761719 L 3.242188 0.761719 L 3.242188 3.394531 L 0.210938 3.394531 Z M 0.210938 0.761719 " fill-opacity="1" fill-rule="nonzero"/></g></g></g></g><g clip-path="url(#d7abf9803b)"><path stroke-linecap="butt" transform="matrix(0.75, 0, 0, 0.75, 500.680416, 116.37685)" fill="none" stroke-linejoin="miter" d="M -0.000971058 -0.00246615 L 33.801114 -0.00246615 L 33.801114 10.372534 L -0.000971058 10.372534 Z M -0.000971058 -0.00246615 " stroke="#ffffff" stroke-width="4" stroke-opacity="1" stroke-miterlimit="4"/></g><g clip-path="url(#03029428dc)"><g transform="matrix(1, 0, 0, 1, 494, 118)"><g clip-path="url(#bc810f3600)"><g clip-path="url(#07e4407bc4)"><path fill="#ffffff" d="M 0.421875 0.957031 L 3.457031 0.957031 L 3.457031 3.589844 L 0.421875 3.589844 Z M 0.421875 0.957031 " fill-opacity="1" fill-rule="nonzero"/></g></g></g></g><g clip-path="url(#881a9abcee)"><g transform="matrix(1, 0, 0, 1, 529, 118)"><g clip-path="url(#1a1e96fbe4)"><g clip-path="url(#628d926189)"><path fill="#ffffff" d="M 0.210938 0.957031 L 3.242188 0.957031 L 3.242188 3.589844 L 0.210938 3.589844 Z M 0.210938 0.957031 " fill-opacity="1" fill-rule="nonzero"/></g></g></g></g></svg>