<svg xmlns="http://www.w3.org/2000/svg" xmlns:xlink="http://www.w3.org/1999/xlink" width="800" zoomAndPan="magnify" viewBox="0 0 600 149.999998" height="200" preserveAspectRatio="xMidYMid meet" version="1.0"><defs><g/><clipPath id="e7badbbf1f"><path d="M 46.332031 15.003906 L 394.136719 15.003906 L 394.136719 136.316406 L 46.332031 136.316406 Z M 46.332031 15.003906 " clip-rule="nonzero"/></clipPath><clipPath id="d60671ebfd"><rect x="0" width="309" y="0" height="121"/></clipPath><clipPath id="4d25858bef"><path d="M 391.511719 15.003906 L 581.070312 15.003906 L 581.070312 136.316406 L 391.511719 136.316406 Z M 391.511719 15.003906 " clip-rule="nonzero"/></clipPath><clipPath id="bc72cc89ad"><path d="M 450.691406 18.515625 L 482.761719 18.515625 L 482.761719 27.140625 L 450.691406 27.140625 Z M 450.691406 18.515625 " clip-rule="nonzero"/></clipPath><clipPath id="4d1ae8395c"><path d="M 465.207031 21.515625 L 468.246094 21.515625 L 468.246094 24.148438 L 465.207031 24.148438 Z M 465.207031 21.515625 " clip-rule="nonzero"/></clipPath><clipPath id="236c509d6f"><path d="M 0.207031 0.515625 L 3.246094 0.515625 L 3.246094 3.148438 L 0.207031 3.148438 Z M 0.207031 0.515625 " clip-rule="nonzero"/></clipPath><clipPath id="9bd53c172a"><rect x="0" width="4" y="0" height="4"/></clipPath><clipPath id="58498fa57f"><path d="M 473.105469 21.515625 L 476.144531 21.515625 L 476.144531 24.148438 L 473.105469 24.148438 Z M 473.105469 21.515625 " clip-rule="nonzero"/></clipPath><clipPath id="237844438f"><path d="M 0.105469 0.515625 L 3.144531 0.515625 L 3.144531 3.148438 L 0.105469 3.148438 Z M 0.105469 0.515625 " clip-rule="nonzero"/></clipPath><clipPath id="4286272f9d"><rect x="0" width="4" y="0" height="4"/></clipPath><clipPath id="3d6e3b78e8"><path d="M 457.429688 21.515625 L 460.46875 21.515625 L 460.46875 24.148438 L 457.429688 24.148438 Z M 457.429688 21.515625 " clip-rule="nonzero"/></clipPath><clipPath id="5fbee80876"><path d="M 0.429688 0.515625 L 3.46875 0.515625 L 3.46875 3.148438 L 0.429688 3.148438 Z M 0.429688 0.515625 " clip-rule="nonzero"/></clipPath><clipPath id="4563749505"><rect x="0" width="4" y="0" height="4"/></clipPath><clipPath id="28ebfda322"><path d="M 401.375 18.515625 L 433.441406 18.515625 L 433.441406 27.140625 L 401.375 27.140625 Z M 401.375 18.515625 " clip-rule="nonzero"/></clipPath><clipPath id="94d1beed3a"><path d="M 415.890625 21.515625 L 418.929688 21.515625 L 418.929688 24.148438 L 415.890625 24.148438 Z M 415.890625 21.515625 " clip-rule="nonzero"/></clipPath><clipPath id="ba2061b728"><path d="M 0.890625 0.515625 L 3.929688 0.515625 L 3.929688 3.148438 L 0.890625 3.148438 Z M 0.890625 0.515625 " clip-rule="nonzero"/></clipPath><clipPath id="fc2da2f52c"><rect x="0" width="4" y="0" height="4"/></clipPath><clipPath id="fd738201c8"><path d="M 423.789062 21.515625 L 426.828125 21.515625 L 426.828125 24.148438 L 423.789062 24.148438 Z M 423.789062 21.515625 " clip-rule="nonzero"/></clipPath><clipPath id="063b43aba8"><path d="M 0.789062 0.515625 L 3.828125 0.515625 L 3.828125 3.148438 L 0.789062 3.148438 Z M 0.789062 0.515625 " clip-rule="nonzero"/></clipPath><clipPath id="04f5ab4ac6"><rect x="0" width="4" y="0" height="4"/></clipPath><clipPath id="84822315ae"><path d="M 408.113281 21.515625 L 411.152344 21.515625 L 411.152344 24.148438 L 408.113281 24.148438 Z M 408.113281 21.515625 " clip-rule="nonzero"/></clipPath><clipPath id="9921aa7c4a"><path d="M 0.113281 0.515625 L 3.152344 0.515625 L 3.152344 3.148438 L 0.113281 3.148438 Z M 0.113281 0.515625 " clip-rule="nonzero"/></clipPath><clipPath id="3e99b16d82"><rect x="0" width="4" y="0" height="4"/></clipPath><clipPath id="ae5da4302d"><path d="M 497.300781 18.515625 L 529.367188 18.515625 L 529.367188 27.140625 L 497.300781 27.140625 Z M 497.300781 18.515625 " clip-rule="nonzero"/></clipPath><clipPath id="f6d874fa79"><path d="M 511.816406 21.515625 L 514.855469 21.515625 L 514.855469 24.148438 L 511.816406 24.148438 Z M 511.816406 21.515625 " clip-rule="nonzero"/></clipPath><clipPath id="eba44c3786"><path d="M 0.816406 0.515625 L 3.855469 0.515625 L 3.855469 3.148438 L 0.816406 3.148438 Z M 0.816406 0.515625 " clip-rule="nonzero"/></clipPath><clipPath id="f4165c4662"><rect x="0" width="4" y="0" height="4"/></clipPath><clipPath id="6783f6f8f3"><path d="M 519.714844 21.515625 L 522.753906 21.515625 L 522.753906 24.148438 L 519.714844 24.148438 Z M 519.714844 21.515625 " clip-rule="nonzero"/></clipPath><clipPath id="d91abf9f06"><path d="M 0.714844 0.515625 L 3.753906 0.515625 L 3.753906 3.148438 L 0.714844 3.148438 Z M 0.714844 0.515625 " clip-rule="nonzero"/></clipPath><clipPath id="bfc4ed8b8a"><rect x="0" width="4" y="0" height="4"/></clipPath><clipPath id="7aea4618b0"><path d="M 504.039062 21.515625 L 507.078125 21.515625 L 507.078125 24.148438 L 504.039062 24.148438 Z M 504.039062 21.515625 " clip-rule="nonzero"/></clipPath><clipPath id="991e328adb"><path d="M 0.0390625 0.515625 L 3.078125 0.515625 L 3.078125 3.148438 L 0.0390625 3.148438 Z M 0.0390625 0.515625 " clip-rule="nonzero"/></clipPath><clipPath id="4bc9f9706e"><rect x="0" width="4" y="0" height="4"/></clipPath><clipPath id="d8dc8925d7"><path d="M 542.296875 18.515625 L 574.367188 18.515625 L 574.367188 27.140625 L 542.296875 27.140625 Z M 542.296875 18.515625 " clip-rule="nonzero"/></clipPath><clipPath id="5a8b43ee90"><path d="M 556.8125 21.515625 L 559.851562 21.515625 L 559.851562 24.148438 L 556.8125 24.148438 Z M 556.8125 21.515625 " clip-rule="nonzero"/></clipPath><clipPath id="9824c38e13"><path d="M 0.8125 0.515625 L 3.851562 0.515625 L 3.851562 3.148438 L 0.8125 3.148438 Z M 0.8125 0.515625 " clip-rule="nonzero"/></clipPath><clipPath id="a8d460500b"><rect x="0" width="4" y="0" height="4"/></clipPath><clipPath id="2dd7aefb58"><path d="M 564.710938 21.515625 L 567.75 21.515625 L 567.75 24.148438 L 564.710938 24.148438 Z M 564.710938 21.515625 " clip-rule="nonzero"/></clipPath><clipPath id="017052f794"><path d="M 0.710938 0.515625 L 3.75 0.515625 L 3.75 3.148438 L 0.710938 3.148438 Z M 0.710938 0.515625 " clip-rule="nonzero"/></clipPath><clipPath id="86fb1b03b3"><rect x="0" width="4" y="0" height="4"/></clipPath><clipPath id="0ba0e2d725"><path d="M 549.035156 21.515625 L 552.074219 21.515625 L 552.074219 24.148438 L 549.035156 24.148438 Z M 549.035156 21.515625 " clip-rule="nonzero"/></clipPath><clipPath id="805978a6a1"><path d="M 0.0351562 0.515625 L 3.074219 0.515625 L 3.074219 3.148438 L 0.0351562 3.148438 Z M 0.0351562 0.515625 " clip-rule="nonzero"/></clipPath><clipPath id="1baf8c5ad0"><rect x="0" width="4" y="0" height="4"/></clipPath><clipPath id="d1c1988824"><path d="M 447.308594 30.886719 L 486.101562 30.886719 L 486.101562 81.320312 L 447.308594 81.320312 Z M 447.308594 30.886719 " clip-rule="nonzero"/></clipPath><clipPath id="5bec3c25d0"><path d="M 0.308594 0.886719 L 39.101562 0.886719 L 39.101562 51.320312 L 0.308594 51.320312 Z M 0.308594 0.886719 " clip-rule="nonzero"/></clipPath><clipPath id="c137b5ea72"><rect x="0" width="40" y="0" height="52"/></clipPath><clipPath id="9b543213de"><path d="M 459.457031 87.964844 L 473.707031 87.964844 L 473.707031 126.953125 L 459.457031 126.953125 Z M 459.457031 87.964844 " clip-rule="nonzero"/></clipPath><clipPath id="ab4f4daa40"><path d="M 463.203125 87.964844 L 470.195312 87.964844 C 471.1875 87.964844 472.140625 88.359375 472.84375 89.0625 C 473.546875 89.765625 473.941406 90.71875 473.941406 91.710938 L 473.941406 123.363281 C 473.941406 124.355469 473.546875 125.308594 472.84375 126.011719 C 472.140625 126.714844 471.1875 127.109375 470.195312 127.109375 L 463.203125 127.109375 C 462.210938 127.109375 461.257812 126.714844 460.554688 126.011719 C 459.851562 125.308594 459.457031 124.355469 459.457031 123.363281 L 459.457031 91.710938 C 459.457031 90.71875 459.851562 89.765625 460.554688 89.0625 C 461.257812 88.359375 462.210938 87.964844 463.203125 87.964844 Z M 463.203125 87.964844 " clip-rule="nonzero"/></clipPath><clipPath id="3524eaee0a"><path d="M 446.785156 100.296875 L 486.523438 100.296875 L 486.523438 114.546875 L 446.785156 114.546875 Z M 446.785156 100.296875 " clip-rule="nonzero"/></clipPath><clipPath id="4a7cd064a9"><path d="M 486.523438 104.042969 L 486.523438 111.035156 C 486.523438 112.027344 486.128906 112.980469 485.425781 113.683594 C 484.722656 114.386719 483.769531 114.78125 482.777344 114.78125 L 450.667969 114.78125 C 449.675781 114.78125 448.722656 114.386719 448.019531 113.683594 C 447.316406 112.980469 446.921875 112.027344 446.921875 111.035156 L 446.921875 104.042969 C 446.921875 103.050781 447.316406 102.097656 448.019531 101.394531 C 448.722656 100.691406 449.675781 100.296875 450.667969 100.296875 L 482.777344 100.296875 C 483.769531 100.296875 484.722656 100.691406 485.425781 101.394531 C 486.128906 102.097656 486.523438 103.050781 486.523438 104.042969 Z M 486.523438 104.042969 " clip-rule="nonzero"/></clipPath><clipPath id="5b0f7a7bac"><path d="M 463.46875 91.730469 L 469.996094 91.730469 L 469.996094 97.429688 L 463.46875 97.429688 Z M 463.46875 91.730469 " clip-rule="nonzero"/></clipPath><clipPath id="ae7389d11a"><path d="M 466.726562 91.730469 L 469.984375 97.429688 L 463.46875 97.429688 Z M 466.726562 91.730469 " clip-rule="nonzero"/></clipPath><clipPath id="bfc760a592"><path d="M 0.46875 0.730469 L 6.996094 0.730469 L 6.996094 6.429688 L 0.46875 6.429688 Z M 0.46875 0.730469 " clip-rule="nonzero"/></clipPath><clipPath id="d6c0e7c7cb"><path d="M 3.726562 0.730469 L 6.984375 6.429688 L 0.46875 6.429688 Z M 3.726562 0.730469 " clip-rule="nonzero"/></clipPath><clipPath id="03ccee8706"><rect x="0" width="7" y="0" height="7"/></clipPath><clipPath id="0cba37e06f"><path d="M 463.449219 117.417969 L 469.972656 117.417969 L 469.972656 123.117188 L 463.449219 123.117188 Z M 463.449219 117.417969 " clip-rule="nonzero"/></clipPath><clipPath id="a8ddd65139"><path d="M 466.71875 123.117188 L 463.460938 117.417969 L 469.972656 117.417969 Z M 466.71875 123.117188 " clip-rule="nonzero"/></clipPath><clipPath id="28a2bf3c45"><path d="M 0.449219 0.417969 L 6.972656 0.417969 L 6.972656 6.117188 L 0.449219 6.117188 Z M 0.449219 0.417969 " clip-rule="nonzero"/></clipPath><clipPath id="37004abab5"><path d="M 3.71875 6.117188 L 0.460938 0.417969 L 6.972656 0.417969 Z M 3.71875 6.117188 " clip-rule="nonzero"/></clipPath><clipPath id="af2511047a"><rect x="0" width="7" y="0" height="7"/></clipPath><clipPath id="26728b36c9"><path d="M 450.679688 104.265625 L 456.382812 104.265625 L 456.382812 110.792969 L 450.679688 110.792969 Z M 450.679688 104.265625 " clip-rule="nonzero"/></clipPath><clipPath id="7fae8ab611"><path d="M 450.679688 107.535156 L 456.382812 104.277344 L 456.382812 110.792969 Z M 450.679688 107.535156 " clip-rule="nonzero"/></clipPath><clipPath id="c9f5ec6d5c"><path d="M 0.679688 0.265625 L 6.382812 0.265625 L 6.382812 6.792969 L 0.679688 6.792969 Z M 0.679688 0.265625 " clip-rule="nonzero"/></clipPath><clipPath id="a015b32c84"><path d="M 0.679688 3.535156 L 6.382812 0.277344 L 6.382812 6.792969 Z M 0.679688 3.535156 " clip-rule="nonzero"/></clipPath><clipPath id="80957eafe1"><rect x="0" width="7" y="0" height="7"/></clipPath><clipPath id="38349e7506"><path d="M 477.105469 104.289062 L 482.804688 104.289062 L 482.804688 110.8125 L 477.105469 110.8125 Z M 477.105469 104.289062 " clip-rule="nonzero"/></clipPath><clipPath id="0b96ff6e20"><path d="M 482.804688 107.546875 L 477.105469 110.804688 L 477.105469 104.289062 Z M 482.804688 107.546875 " clip-rule="nonzero"/></clipPath><clipPath id="b260cfe7ab"><path d="M 0.105469 0.289062 L 5.804688 0.289062 L 5.804688 6.8125 L 0.105469 6.8125 Z M 0.105469 0.289062 " clip-rule="nonzero"/></clipPath><clipPath id="9545aef972"><path d="M 5.804688 3.546875 L 0.105469 6.804688 L 0.105469 0.289062 Z M 5.804688 3.546875 " clip-rule="nonzero"/></clipPath><clipPath id="201f05934e"><rect x="0" width="6" y="0" height="7"/></clipPath><clipPath id="3e5e0efea6"><path d="M 500.679688 38.679688 L 526.03125 38.679688 L 526.03125 46.179688 L 500.679688 46.179688 Z M 500.679688 38.679688 " clip-rule="nonzero"/></clipPath><clipPath id="3b6cab5f40"><path d="M 494.421875 41.257812 L 497.460938 41.257812 L 497.460938 43.890625 L 494.421875 43.890625 Z M 494.421875 41.257812 " clip-rule="nonzero"/></clipPath><clipPath id="c1532b18a3"><path d="M 0.421875 0.257812 L 3.460938 0.257812 L 3.460938 2.890625 L 0.421875 2.890625 Z M 0.421875 0.257812 " clip-rule="nonzero"/></clipPath><clipPath id="601b0d7710"><rect x="0" width="4" y="0" height="3"/></clipPath><clipPath id="15a9b15a72"><path d="M 529.210938 41.257812 L 532.25 41.257812 L 532.25 43.890625 L 529.210938 43.890625 Z M 529.210938 41.257812 " clip-rule="nonzero"/></clipPath><clipPath id="d347db2285"><path d="M 0.210938 0.257812 L 3.25 0.257812 L 3.25 2.890625 L 0.210938 2.890625 Z M 0.210938 0.257812 " clip-rule="nonzero"/></clipPath><clipPath id="a235c223b0"><rect x="0" width="4" y="0" height="3"/></clipPath><clipPath id="4eada443f0"><path d="M 500.679688 30.886719 L 526.03125 30.886719 L 526.03125 38.386719 L 500.679688 38.386719 Z M 500.679688 30.886719 " clip-rule="nonzero"/></clipPath><clipPath id="8bded1bef8"><path d="M 494.421875 33.46875 L 497.460938 33.46875 L 497.460938 36.101562 L 494.421875 36.101562 Z M 494.421875 33.46875 " clip-rule="nonzero"/></clipPath><clipPath id="ee5bc5e3de"><path d="M 0.421875 0.46875 L 3.460938 0.46875 L 3.460938 3.101562 L 0.421875 3.101562 Z M 0.421875 0.46875 " clip-rule="nonzero"/></clipPath><clipPath id="a2de728718"><rect x="0" width="4" y="0" height="4"/></clipPath><clipPath id="a495272811"><path d="M 529.210938 33.46875 L 532.25 33.46875 L 532.25 36.101562 L 529.210938 36.101562 Z M 529.210938 33.46875 " clip-rule="nonzero"/></clipPath><clipPath id="8f1f84ea5d"><path d="M 0.210938 0.46875 L 3.25 0.46875 L 3.25 3.101562 L 0.210938 3.101562 Z M 0.210938 0.46875 " clip-rule="nonzero"/></clipPath><clipPath id="568de5a21b"><rect x="0" width="4" y="0" height="4"/></clipPath><clipPath id="684078c529"><path d="M 500.679688 46.472656 L 526.03125 46.472656 L 526.03125 53.972656 L 500.679688 53.972656 Z M 500.679688 46.472656 " clip-rule="nonzero"/></clipPath><clipPath id="5e6eef094c"><path d="M 494.421875 49.050781 L 497.460938 49.050781 L 497.460938 51.683594 L 494.421875 51.683594 Z M 494.421875 49.050781 " clip-rule="nonzero"/></clipPath><clipPath id="39b8f3a892"><path d="M 0.421875 0.0507812 L 3.460938 0.0507812 L 3.460938 2.683594 L 0.421875 2.683594 Z M 0.421875 0.0507812 " clip-rule="nonzero"/></clipPath><clipPath id="6103c06a7f"><rect x="0" width="4" y="0" height="3"/></clipPath><clipPath id="263bbaff95"><path d="M 529.210938 49.050781 L 532.25 49.050781 L 532.25 51.683594 L 529.210938 51.683594 Z M 529.210938 49.050781 " clip-rule="nonzero"/></clipPath><clipPath id="546a095fb8"><path d="M 0.210938 0.0507812 L 3.25 0.0507812 L 3.25 2.683594 L 0.210938 2.683594 Z M 0.210938 0.0507812 " clip-rule="nonzero"/></clipPath><clipPath id="01d04ca004"><rect x="0" width="4" y="0" height="3"/></clipPath><clipPath id="9f29aa4e4e"><path d="M 500.679688 54.265625 L 526.03125 54.265625 L 526.03125 61.765625 L 500.679688 61.765625 Z M 500.679688 54.265625 " clip-rule="nonzero"/></clipPath><clipPath id="249961e319"><path d="M 494.421875 56.84375 L 497.460938 56.84375 L 497.460938 59.476562 L 494.421875 59.476562 Z M 494.421875 56.84375 " clip-rule="nonzero"/></clipPath><clipPath id="cfa47bccd1"><path d="M 0.421875 0.84375 L 3.460938 0.84375 L 3.460938 3.476562 L 0.421875 3.476562 Z M 0.421875 0.84375 " clip-rule="nonzero"/></clipPath><clipPath id="d4a772bc4b"><rect x="0" width="4" y="0" height="4"/></clipPath><clipPath id="eca9ec2219"><path d="M 529.210938 56.84375 L 532.25 56.84375 L 532.25 59.476562 L 529.210938 59.476562 Z M 529.210938 56.84375 " clip-rule="nonzero"/></clipPath><clipPath id="ea3189d30a"><path d="M 0.210938 0.84375 L 3.25 0.84375 L 3.25 3.476562 L 0.210938 3.476562 Z M 0.210938 0.84375 " clip-rule="nonzero"/></clipPath><clipPath id="445b2d5b29"><rect x="0" width="4" y="0" height="4"/></clipPath><clipPath id="aaee4ac76c"><path d="M 500.679688 62.058594 L 526.03125 62.058594 L 526.03125 69.558594 L 500.679688 69.558594 Z M 500.679688 62.058594 " clip-rule="nonzero"/></clipPath><clipPath id="9d087ae551"><path d="M 494.421875 64.636719 L 497.460938 64.636719 L 497.460938 67.269531 L 494.421875 67.269531 Z M 494.421875 64.636719 " clip-rule="nonzero"/></clipPath><clipPath id="a5f4443189"><path d="M 0.421875 0.636719 L 3.460938 0.636719 L 3.460938 3.269531 L 0.421875 3.269531 Z M 0.421875 0.636719 " clip-rule="nonzero"/></clipPath><clipPath id="2c159d22e1"><rect x="0" width="4" y="0" height="4"/></clipPath><clipPath id="08f381b659"><path d="M 529.210938 64.636719 L 532.25 64.636719 L 532.25 67.269531 L 529.210938 67.269531 Z M 529.210938 64.636719 " clip-rule="nonzero"/></clipPath><clipPath id="f0b685d173"><path d="M 0.210938 0.636719 L 3.25 0.636719 L 3.25 3.269531 L 0.210938 3.269531 Z M 0.210938 0.636719 " clip-rule="nonzero"/></clipPath><clipPath id="c5531afc05"><rect x="0" width="4" y="0" height="4"/></clipPath><clipPath id="3102371a34"><path d="M 500.679688 69.851562 L 526.03125 69.851562 L 526.03125 77.351562 L 500.679688 77.351562 Z M 500.679688 69.851562 " clip-rule="nonzero"/></clipPath><clipPath id="3325557cd3"><path d="M 494.421875 72.429688 L 497.460938 72.429688 L 497.460938 75.0625 L 494.421875 75.0625 Z M 494.421875 72.429688 " clip-rule="nonzero"/></clipPath><clipPath id="12066b4442"><path d="M 0.421875 0.429688 L 3.460938 0.429688 L 3.460938 3.0625 L 0.421875 3.0625 Z M 0.421875 0.429688 " clip-rule="nonzero"/></clipPath><clipPath id="b4526fe480"><rect x="0" width="4" y="0" height="4"/></clipPath><clipPath id="c8d2d0e210"><path d="M 529.210938 72.429688 L 532.25 72.429688 L 532.25 75.0625 L 529.210938 75.0625 Z M 529.210938 72.429688 " clip-rule="nonzero"/></clipPath><clipPath id="8b7338fe8b"><path d="M 0.210938 0.429688 L 3.25 0.429688 L 3.25 3.0625 L 0.210938 3.0625 Z M 0.210938 0.429688 " clip-rule="nonzero"/></clipPath><clipPath id="7937003c40"><rect x="0" width="4" y="0" height="4"/></clipPath><clipPath id="da44800308"><path d="M 500.679688 77.421875 L 526.03125 77.421875 L 526.03125 84.921875 L 500.679688 84.921875 Z M 500.679688 77.421875 " clip-rule="nonzero"/></clipPath><clipPath id="9d280c0600"><path d="M 494.421875 80.003906 L 497.460938 80.003906 L 497.460938 82.636719 L 494.421875 82.636719 Z M 494.421875 80.003906 " clip-rule="nonzero"/></clipPath><clipPath id="106b069ed0"><path d="M 0.421875 0.00390625 L 3.460938 0.00390625 L 3.460938 2.636719 L 0.421875 2.636719 Z M 0.421875 0.00390625 " clip-rule="nonzero"/></clipPath><clipPath id="ef81ecc6f4"><rect x="0" width="4" y="0" height="3"/></clipPath><clipPath id="0d06bd434e"><path d="M 529.210938 80.003906 L 532.25 80.003906 L 532.25 82.636719 L 529.210938 82.636719 Z M 529.210938 80.003906 " clip-rule="nonzero"/></clipPath><clipPath id="acda80631b"><path d="M 0.210938 0.00390625 L 3.25 0.00390625 L 3.25 2.636719 L 0.210938 2.636719 Z M 0.210938 0.00390625 " clip-rule="nonzero"/></clipPath><clipPath id="8b64aeba24"><rect x="0" width="4" y="0" height="3"/></clipPath><clipPath id="265ee39d8f"><path d="M 500.679688 85.214844 L 526.03125 85.214844 L 526.03125 92.714844 L 500.679688 92.714844 Z M 500.679688 85.214844 " clip-rule="nonzero"/></clipPath><clipPath id="8cd1b03296"><path d="M 494.421875 87.796875 L 497.460938 87.796875 L 497.460938 90.429688 L 494.421875 90.429688 Z M 494.421875 87.796875 " clip-rule="nonzero"/></clipPath><clipPath id="49de438932"><path d="M 0.421875 0.796875 L 3.460938 0.796875 L 3.460938 3.429688 L 0.421875 3.429688 Z M 0.421875 0.796875 " clip-rule="nonzero"/></clipPath><clipPath id="6225dec70a"><rect x="0" width="4" y="0" height="4"/></clipPath><clipPath id="9d37712bea"><path d="M 529.210938 87.796875 L 532.25 87.796875 L 532.25 90.429688 L 529.210938 90.429688 Z M 529.210938 87.796875 " clip-rule="nonzero"/></clipPath><clipPath id="5f65c703e5"><path d="M 0.210938 0.796875 L 3.25 0.796875 L 3.25 3.429688 L 0.210938 3.429688 Z M 0.210938 0.796875 " clip-rule="nonzero"/></clipPath><clipPath id="61a483169d"><rect x="0" width="4" y="0" height="4"/></clipPath><clipPath id="a34c079d0d"><path d="M 500.679688 92.585938 L 526.03125 92.585938 L 526.03125 100.085938 L 500.679688 100.085938 Z M 500.679688 92.585938 " clip-rule="nonzero"/></clipPath><clipPath id="d9877af5c3"><path d="M 494.421875 95.167969 L 497.460938 95.167969 L 497.460938 97.800781 L 494.421875 97.800781 Z M 494.421875 95.167969 " clip-rule="nonzero"/></clipPath><clipPath id="6a54e50626"><path d="M 0.421875 0.167969 L 3.460938 0.167969 L 3.460938 2.800781 L 0.421875 2.800781 Z M 0.421875 0.167969 " clip-rule="nonzero"/></clipPath><clipPath id="555ac857e9"><rect x="0" width="4" y="0" height="3"/></clipPath><clipPath id="15bd7cdca5"><path d="M 529.210938 95.167969 L 532.25 95.167969 L 532.25 97.800781 L 529.210938 97.800781 Z M 529.210938 95.167969 " clip-rule="nonzero"/></clipPath><clipPath id="6f2afe83d1"><path d="M 0.210938 0.167969 L 3.25 0.167969 L 3.25 2.800781 L 0.210938 2.800781 Z M 0.210938 0.167969 " clip-rule="nonzero"/></clipPath><clipPath id="d9e9258ce8"><rect x="0" width="4" y="0" height="3"/></clipPath><clipPath id="8dfe693783"><path d="M 500.679688 100.390625 L 526.03125 100.390625 L 526.03125 107.890625 L 500.679688 107.890625 Z M 500.679688 100.390625 " clip-rule="nonzero"/></clipPath><clipPath id="6a6f155a54"><path d="M 494.421875 102.96875 L 497.460938 102.96875 L 497.460938 105.601562 L 494.421875 105.601562 Z M 494.421875 102.96875 " clip-rule="nonzero"/></clipPath><clipPath id="5c53a0ec9c"><path d="M 0.421875 0.96875 L 3.460938 0.96875 L 3.460938 3.601562 L 0.421875 3.601562 Z M 0.421875 0.96875 " clip-rule="nonzero"/></clipPath><clipPath id="a2c3d99603"><rect x="0" width="4" y="0" height="4"/></clipPath><clipPath id="1a81680a1b"><path d="M 529.210938 102.96875 L 532.25 102.96875 L 532.25 105.601562 L 529.210938 105.601562 Z M 529.210938 102.96875 " clip-rule="nonzero"/></clipPath><clipPath id="0e02d7969c"><path d="M 0.210938 0.96875 L 3.25 0.96875 L 3.25 3.601562 L 0.210938 3.601562 Z M 0.210938 0.96875 " clip-rule="nonzero"/></clipPath><clipPath id="41d3f7b5ed"><rect x="0" width="4" y="0" height="4"/></clipPath><clipPath id="4712dcf0fb"><path d="M 500.679688 108.179688 L 526.03125 108.179688 L 526.03125 115.679688 L 500.679688 115.679688 Z M 500.679688 108.179688 " clip-rule="nonzero"/></clipPath><clipPath id="e22904dcbb"><path d="M 494.421875 110.761719 L 497.460938 110.761719 L 497.460938 113.394531 L 494.421875 113.394531 Z M 494.421875 110.761719 " clip-rule="nonzero"/></clipPath><clipPath id="e4ef707b32"><path d="M 0.421875 0.761719 L 3.460938 0.761719 L 3.460938 3.394531 L 0.421875 3.394531 Z M 0.421875 0.761719 " clip-rule="nonzero"/></clipPath><clipPath id="f70ed0050c"><rect x="0" width="4" y="0" height="4"/></clipPath><clipPath id="173ed6d07b"><path d="M 529.210938 110.761719 L 532.25 110.761719 L 532.25 113.394531 L 529.210938 113.394531 Z M 529.210938 110.761719 " clip-rule="nonzero"/></clipPath><clipPath id="f33662b837"><path d="M 0.210938 0.761719 L 3.25 0.761719 L 3.25 3.394531 L 0.210938 3.394531 Z M 0.210938 0.761719 " clip-rule="nonzero"/></clipPath><clipPath id="312990352c"><rect x="0" width="4" y="0" height="4"/></clipPath><clipPath id="8d51924904"><path d="M 500.679688 116.375 L 526.03125 116.375 L 526.03125 123.875 L 500.679688 123.875 Z M 500.679688 116.375 " clip-rule="nonzero"/></clipPath><clipPath id="e0f306f78e"><path d="M 494.421875 118.957031 L 497.460938 118.957031 L 497.460938 121.589844 L 494.421875 121.589844 Z M 494.421875 118.957031 " clip-rule="nonzero"/></clipPath><clipPath id="7b6ffe39d6"><path d="M 0.421875 0.957031 L 3.460938 0.957031 L 3.460938 3.589844 L 0.421875 3.589844 Z M 0.421875 0.957031 " clip-rule="nonzero"/></clipPath><clipPath id="fb63a2b71f"><rect x="0" width="4" y="0" height="4"/></clipPath><clipPath id="cb3e396f8a"><path d="M 529.210938 118.957031 L 532.25 118.957031 L 532.25 121.589844 L 529.210938 121.589844 Z M 529.210938 118.957031 " clip-rule="nonzero"/></clipPath><clipPath id="28ee2ba915"><path d="M 0.210938 0.957031 L 3.25 0.957031 L 3.25 3.589844 L 0.210938 3.589844 Z M 0.210938 0.957031 " clip-rule="nonzero"/></clipPath><clipPath id="d9ff95ecde"><rect x="0" width="4" y="0" height="4"/></clipPath></defs><g clip-path="url(#e7badbbf1f)"><path stroke-linecap="butt" transform="matrix(0.75, 0, 0, 0.75, 46.332542, 15.005568)" fill="none" stroke-linejoin="miter" d="M -0.000681396 -0.00221621 L 463.738929 -0.00221621 L 463.738929 161.747793 L -0.000681396 161.747793 Z M -0.000681396 -0.00221621 " stroke="#ffffff" stroke-width="10" stroke-opacity="1" stroke-miterlimit="4"/></g><g transform="matrix(1, 0, 0, 1, 66, 15)"><g clip-path="url(#d60671ebfd)"><g fill="#ffffff" fill-opacity="1"><g transform="translate(0.726116, 93.046461)"><g><path d="M 3.078125 -69.46875 L 21.4375 -69.46875 C 26.988281 -69.46875 30.945312 -67.675781 33.3125 -64.09375 C 35.6875 -60.507812 36.875 -55.265625 36.875 -48.359375 C 36.875 -41.460938 35.820312 -36.257812 33.71875 -32.75 C 31.625 -29.25 27.851562 -27.5 22.40625 -27.5 L 16.734375 -27.5 L 16.734375 0 L 3.078125 0 Z M 17.546875 -40.03125 C 19.222656 -40.03125 20.453125 -40.335938 21.234375 -40.953125 C 22.015625 -41.578125 22.523438 -42.46875 22.765625 -43.625 C 23.003906 -44.789062 23.125 -46.453125 23.125 -48.609375 C 23.125 -51.515625 22.800781 -53.613281 22.15625 -54.90625 C 21.507812 -56.207031 20.21875 -56.859375 18.28125 -56.859375 L 16.734375 -56.859375 L 16.734375 -40.03125 Z M 17.546875 -40.03125 "/></g></g></g><g fill="#ffffff" fill-opacity="1"><g transform="translate(37.119513, 93.046461)"><g><path d="M 3.078125 0 L 3.078125 -69.46875 L 16.984375 -69.46875 L 16.984375 -11.8125 L 31.296875 -11.8125 L 31.296875 0 Z M 3.078125 0 "/></g></g></g><g fill="#ffffff" fill-opacity="1"><g transform="translate(67.447333, 93.046461)"><g><path d="M 19.25 0.640625 C 14.175781 0.640625 10.113281 -0.945312 7.0625 -4.125 C 4.019531 -7.300781 2.5 -11.664062 2.5 -17.21875 L 2.5 -49.25 C 2.5 -56.15625 3.875 -61.359375 6.625 -64.859375 C 9.375 -68.367188 13.691406 -70.125 19.578125 -70.125 C 24.691406 -70.125 28.8125 -68.71875 31.9375 -65.90625 C 35.070312 -63.101562 36.640625 -59.0625 36.640625 -53.78125 L 36.640625 -41.8125 L 22.8125 -41.8125 L 22.8125 -52.078125 C 22.8125 -54.078125 22.566406 -55.453125 22.078125 -56.203125 C 21.585938 -56.960938 20.753906 -57.34375 19.578125 -57.34375 C 18.335938 -57.34375 17.488281 -56.910156 17.03125 -56.046875 C 16.570312 -55.179688 16.34375 -53.914062 16.34375 -52.25 L 16.34375 -17.390625 C 16.34375 -15.554688 16.609375 -14.21875 17.140625 -13.375 C 17.679688 -12.539062 18.492188 -12.125 19.578125 -12.125 C 21.734375 -12.125 22.8125 -13.878906 22.8125 -17.390625 L 22.8125 -29.921875 L 36.796875 -29.921875 L 36.796875 -16.828125 C 36.796875 -5.179688 30.945312 0.640625 19.25 0.640625 Z M 19.25 0.640625 "/></g></g></g><g fill="#ffffff" fill-opacity="1"><g transform="translate(104.002481, 93.046461)"><g/></g></g><g fill="#ffffff" fill-opacity="1"><g transform="translate(121.14778, 93.046461)"><g><path d="M 2.34375 -20.140625 L 2.34375 -29.28125 L 22.71875 -29.28125 L 22.71875 -20.140625 Z M 2.34375 -20.140625 "/></g></g></g><g fill="#ffffff" fill-opacity="1"><g transform="translate(144.520407, 93.046461)"><g/></g></g><g fill="#ffffff" fill-opacity="1"><g transform="translate(161.665698, 93.046461)"><g><path d="M 1.296875 0 L 1.296875 -12.609375 L 17.140625 -56.6875 L 2.828125 -56.6875 L 2.828125 -69.46875 L 31.859375 -69.46875 L 31.859375 -57.34375 L 15.609375 -12.78125 L 31.140625 -12.78125 L 31.140625 0 Z M 1.296875 0 "/></g></g></g><g fill="#ffffff" fill-opacity="1"><g transform="translate(193.044894, 93.046461)"><g><path d="M 20.0625 0.640625 C 8.25 0.640625 2.34375 -5.476562 2.34375 -17.71875 L 2.34375 -41.484375 C 2.34375 -47.097656 3.921875 -51.5625 7.078125 -54.875 C 10.234375 -58.1875 14.5625 -59.84375 20.0625 -59.84375 C 25.5625 -59.84375 29.882812 -58.1875 33.03125 -54.875 C 36.1875 -51.5625 37.765625 -47.097656 37.765625 -41.484375 L 37.765625 -17.71875 C 37.765625 -5.476562 31.863281 0.640625 20.0625 0.640625 Z M 20.0625 -10.265625 C 21.1875 -10.265625 22.019531 -10.671875 22.5625 -11.484375 C 23.101562 -12.296875 23.375 -13.398438 23.375 -14.796875 L 23.375 -43.75 C 23.375 -47.195312 22.269531 -48.921875 20.0625 -48.921875 C 17.84375 -48.921875 16.734375 -47.195312 16.734375 -43.75 L 16.734375 -14.796875 C 16.734375 -13.398438 17.003906 -12.296875 17.546875 -11.484375 C 18.085938 -10.671875 18.925781 -10.265625 20.0625 -10.265625 Z M 20.0625 -10.265625 "/></g></g></g><g fill="#ffffff" fill-opacity="1"><g transform="translate(231.46015, 93.046461)"><g><path d="M 2.828125 -59.203125 L 16.984375 -59.203125 L 16.984375 -51.671875 C 17.578125 -54.097656 18.597656 -56.066406 20.046875 -57.578125 C 21.503906 -59.085938 23.445312 -59.84375 25.875 -59.84375 C 29.863281 -59.84375 32.816406 -58.613281 34.734375 -56.15625 C 36.648438 -53.707031 37.609375 -50.21875 37.609375 -45.6875 L 37.609375 0 L 23.703125 0 L 23.703125 -44.234375 C 23.703125 -45.523438 23.441406 -46.628906 22.921875 -47.546875 C 22.410156 -48.460938 21.617188 -48.921875 20.546875 -48.921875 C 19.085938 -48.921875 18.128906 -48.257812 17.671875 -46.9375 C 17.210938 -45.625 16.984375 -43.863281 16.984375 -41.65625 L 16.984375 0 L 2.828125 0 Z M 2.828125 -59.203125 "/></g></g></g><g fill="#ffffff" fill-opacity="1"><g transform="translate(270.037156, 93.046461)"><g><path d="M 19.40625 0.640625 C 13.3125 0.640625 8.941406 -1.023438 6.296875 -4.359375 C 3.660156 -7.703125 2.34375 -12.691406 2.34375 -19.328125 L 2.34375 -43.109375 C 2.34375 -48.554688 3.90625 -52.707031 7.03125 -55.5625 C 10.164062 -58.414062 14.535156 -59.84375 20.140625 -59.84375 C 31.515625 -59.84375 37.203125 -54.265625 37.203125 -43.109375 L 37.203125 -38.8125 C 37.203125 -34.5 37.148438 -31 37.046875 -28.3125 L 16.5 -28.3125 L 16.5 -16.828125 C 16.5 -14.773438 16.710938 -13.164062 17.140625 -12 C 17.578125 -10.84375 18.492188 -10.265625 19.890625 -10.265625 C 20.972656 -10.265625 21.742188 -10.585938 22.203125 -11.234375 C 22.660156 -11.890625 22.925781 -12.632812 23 -13.46875 C 23.082031 -14.300781 23.125 -15.523438 23.125 -17.140625 L 23.125 -22.890625 L 37.203125 -22.890625 L 37.203125 -19.484375 C 37.203125 -12.585938 35.867188 -7.507812 33.203125 -4.25 C 30.535156 -0.988281 25.9375 0.640625 19.40625 0.640625 Z M 23.125 -35.34375 L 23.125 -42.9375 C 23.125 -47.195312 22.070312 -49.328125 19.96875 -49.328125 C 17.601562 -49.328125 16.421875 -47.195312 16.421875 -42.9375 L 16.421875 -35.34375 Z M 23.125 -35.34375 "/></g></g></g></g></g><g clip-path="url(#4d25858bef)"><path stroke-linecap="butt" transform="matrix(0.75, 0, 0, 0.75, 391.510324, 15.005568)" fill="none" stroke-linejoin="miter" d="M 0.00185998 -0.00221621 L 252.746666 -0.00221621 L 252.746666 161.747793 L 0.00185998 161.747793 Z M 0.00185998 -0.00221621 " stroke="#ffffff" stroke-width="10" stroke-opacity="1" stroke-miterlimit="4"/></g><path stroke-linecap="butt" transform="matrix(-0.00278352, 0.749995, -0.749995, -0.00278352, 443.943315, 15.013551)" fill="none" stroke-linejoin="miter" d="M -0.000219179 2.00256 L 161.756117 2.001183 " stroke="#ffffff" stroke-width="4" stroke-opacity="1" stroke-miterlimit="4"/><path stroke-linecap="butt" transform="matrix(0, 0.75, -0.75, 0, 492.462336, 15.007565)" fill="none" stroke-linejoin="miter" d="M 0.000329727 2.001865 L 161.755547 2.001865 " stroke="#ffffff" stroke-width="4" stroke-opacity="1" stroke-miterlimit="4"/><path stroke-linecap="butt" transform="matrix(0, 0.75, -0.75, 0, 537.204166, 15.007565)" fill="none" stroke-linejoin="miter" d="M 0.000329727 2.001388 L 161.755547 2.001388 " stroke="#ffffff" stroke-width="4" stroke-opacity="1" stroke-miterlimit="4"/><g clip-path="url(#bc72cc89ad)"><path stroke-linecap="butt" transform="matrix(0.75, 0, 0, 0.75, 450.691995, 18.517279)" fill="none" stroke-linejoin="miter" d="M -0.000784613 -0.00220587 L 42.759635 -0.00220587 L 42.759635 11.497795 L -0.000784613 11.497795 Z M -0.000784613 -0.00220587 " stroke="#ffffff" stroke-width="4" stroke-opacity="1" stroke-miterlimit="4"/></g><g clip-path="url(#4d1ae8395c)"><g transform="matrix(1, 0, 0, 1, 465, 21)"><g clip-path="url(#9bd53c172a)"><g clip-path="url(#236c509d6f)"><path fill="#ffffff" d="M 0.207031 0.515625 L 3.242188 0.515625 L 3.242188 3.148438 L 0.207031 3.148438 Z M 0.207031 0.515625 " fill-opacity="1" fill-rule="nonzero"/></g></g></g></g><g clip-path="url(#58498fa57f)"><g transform="matrix(1, 0, 0, 1, 473, 21)"><g clip-path="url(#4286272f9d)"><g clip-path="url(#237844438f)"><path fill="#ffffff" d="M 0.105469 0.515625 L 3.140625 0.515625 L 3.140625 3.148438 L 0.105469 3.148438 Z M 0.105469 0.515625 " fill-opacity="1" fill-rule="nonzero"/></g></g></g></g><g clip-path="url(#3d6e3b78e8)"><g transform="matrix(1, 0, 0, 1, 457, 21)"><g clip-path="url(#4563749505)"><g clip-path="url(#5fbee80876)"><path fill="#ffffff" d="M 0.429688 0.515625 L 3.464844 0.515625 L 3.464844 3.148438 L 0.429688 3.148438 Z M 0.429688 0.515625 " fill-opacity="1" fill-rule="nonzero"/></g></g></g></g><g clip-path="url(#28ebfda322)"><path stroke-linecap="butt" transform="matrix(0.75, 0, 0, 0.75, 401.374026, 18.517279)" fill="none" stroke-linejoin="miter" d="M 0.00129922 -0.00220587 L 42.75651 -0.00220587 L 42.75651 11.497795 L 0.00129922 11.497795 Z M 0.00129922 -0.00220587 " stroke="#ffffff" stroke-width="4" stroke-opacity="1" stroke-miterlimit="4"/></g><g clip-path="url(#94d1beed3a)"><g transform="matrix(1, 0, 0, 1, 415, 21)"><g clip-path="url(#fc2da2f52c)"><g clip-path="url(#ba2061b728)"><path fill="#ffffff" d="M 0.890625 0.515625 L 3.925781 0.515625 L 3.925781 3.148438 L 0.890625 3.148438 Z M 0.890625 0.515625 " fill-opacity="1" fill-rule="nonzero"/></g></g></g></g><g clip-path="url(#fd738201c8)"><g transform="matrix(1, 0, 0, 1, 423, 21)"><g clip-path="url(#04f5ab4ac6)"><g clip-path="url(#063b43aba8)"><path fill="#ffffff" d="M 0.789062 0.515625 L 3.824219 0.515625 L 3.824219 3.148438 L 0.789062 3.148438 Z M 0.789062 0.515625 " fill-opacity="1" fill-rule="nonzero"/></g></g></g></g><g clip-path="url(#84822315ae)"><g transform="matrix(1, 0, 0, 1, 408, 21)"><g clip-path="url(#3e99b16d82)"><g clip-path="url(#9921aa7c4a)"><path fill="#ffffff" d="M 0.113281 0.515625 L 3.148438 0.515625 L 3.148438 3.148438 L 0.113281 3.148438 Z M 0.113281 0.515625 " fill-opacity="1" fill-rule="nonzero"/></g></g></g></g><g clip-path="url(#ae5da4302d)"><path stroke-linecap="butt" transform="matrix(0.75, 0, 0, 0.75, 497.299128, 18.517279)" fill="none" stroke-linejoin="miter" d="M 0.00220435 -0.00220587 L 42.757415 -0.00220587 L 42.757415 11.497795 L 0.00220435 11.497795 Z M 0.00220435 -0.00220587 " stroke="#ffffff" stroke-width="4" stroke-opacity="1" stroke-miterlimit="4"/></g><g clip-path="url(#f6d874fa79)"><g transform="matrix(1, 0, 0, 1, 511, 21)"><g clip-path="url(#f4165c4662)"><g clip-path="url(#eba44c3786)"><path fill="#ffffff" d="M 0.816406 0.515625 L 3.851562 0.515625 L 3.851562 3.148438 L 0.816406 3.148438 Z M 0.816406 0.515625 " fill-opacity="1" fill-rule="nonzero"/></g></g></g></g><g clip-path="url(#6783f6f8f3)"><g transform="matrix(1, 0, 0, 1, 519, 21)"><g clip-path="url(#bfc4ed8b8a)"><g clip-path="url(#d91abf9f06)"><path fill="#ffffff" d="M 0.714844 0.515625 L 3.75 0.515625 L 3.75 3.148438 L 0.714844 3.148438 Z M 0.714844 0.515625 " fill-opacity="1" fill-rule="nonzero"/></g></g></g></g><g clip-path="url(#7aea4618b0)"><g transform="matrix(1, 0, 0, 1, 504, 21)"><g clip-path="url(#4bc9f9706e)"><g clip-path="url(#991e328adb)"><path fill="#ffffff" d="M 0.0390625 0.515625 L 3.074219 0.515625 L 3.074219 3.148438 L 0.0390625 3.148438 Z M 0.0390625 0.515625 " fill-opacity="1" fill-rule="nonzero"/></g></g></g></g><g clip-path="url(#d8dc8925d7)"><path stroke-linecap="butt" transform="matrix(0.75, 0, 0, 0.75, 542.296485, 18.517279)" fill="none" stroke-linejoin="miter" d="M 0.000519512 -0.00220587 L 42.760939 -0.00220587 L 42.760939 11.497795 L 0.000519512 11.497795 Z M 0.000519512 -0.00220587 " stroke="#ffffff" stroke-width="4" stroke-opacity="1" stroke-miterlimit="4"/></g><g clip-path="url(#5a8b43ee90)"><g transform="matrix(1, 0, 0, 1, 556, 21)"><g clip-path="url(#a8d460500b)"><g clip-path="url(#9824c38e13)"><path fill="#ffffff" d="M 0.8125 0.515625 L 3.847656 0.515625 L 3.847656 3.148438 L 0.8125 3.148438 Z M 0.8125 0.515625 " fill-opacity="1" fill-rule="nonzero"/></g></g></g></g><g clip-path="url(#2dd7aefb58)"><g transform="matrix(1, 0, 0, 1, 564, 21)"><g clip-path="url(#86fb1b03b3)"><g clip-path="url(#017052f794)"><path fill="#ffffff" d="M 0.710938 0.515625 L 3.746094 0.515625 L 3.746094 3.148438 L 0.710938 3.148438 Z M 0.710938 0.515625 " fill-opacity="1" fill-rule="nonzero"/></g></g></g></g><g clip-path="url(#0ba0e2d725)"><g transform="matrix(1, 0, 0, 1, 549, 21)"><g clip-path="url(#1baf8c5ad0)"><g clip-path="url(#805978a6a1)"><path fill="#ffffff" d="M 0.0351562 0.515625 L 3.070312 0.515625 L 3.070312 3.148438 L 0.0351562 3.148438 Z M 0.0351562 0.515625 " fill-opacity="1" fill-rule="nonzero"/></g></g></g></g><g clip-path="url(#d1c1988824)"><g transform="matrix(1, 0, 0, 1, 447, 30)"><g clip-path="url(#c137b5ea72)"><g clip-path="url(#5bec3c25d0)"><path fill="#ffffff" d="M 0.308594 0.886719 L 39.101562 0.886719 L 39.101562 51.347656 L 0.308594 51.347656 Z M 0.308594 0.886719 " fill-opacity="1" fill-rule="nonzero"/></g></g></g></g><g clip-path="url(#9b543213de)"><g clip-path="url(#ab4f4daa40)"><path stroke-linecap="butt" transform="matrix(0.75, 0, 0, 0.75, 459.45749, 87.964163)" fill="none" stroke-linejoin="miter" d="M 4.99418 0.000907308 L 14.317097 0.000907308 C 15.640014 0.000907308 16.910847 0.526949 17.848347 1.464449 C 18.785847 2.401949 19.311889 3.672783 19.311889 4.995699 L 19.311889 47.198827 C 19.311889 48.521743 18.785847 49.792577 17.848347 50.730077 C 16.910847 51.667577 15.640014 52.193619 14.317097 52.193619 L 4.99418 52.193619 C 3.671263 52.193619 2.40043 51.667577 1.46293 50.730077 C 0.52543 49.792577 -0.000611931 48.521743 -0.000611931 47.198827 L -0.000611931 4.995699 C -0.000611931 3.672783 0.52543 2.401949 1.46293 1.464449 C 2.40043 0.526949 3.671263 0.000907308 4.99418 0.000907308 Z M 4.99418 0.000907308 " stroke="#ffffff" stroke-width="4" stroke-opacity="1" stroke-miterlimit="4"/></g></g><g clip-path="url(#3524eaee0a)"><g clip-path="url(#4a7cd064a9)"><path stroke-linecap="butt" transform="matrix(0, 0.75, -0.75, 0, 486.522745, 100.296119)" fill="none" stroke-linejoin="miter" d="M 4.995801 -0.000923841 L 14.318718 -0.000923841 C 15.641635 -0.000923841 16.912468 0.525118 17.849968 1.462618 C 18.787468 2.400118 19.31351 3.670951 19.31351 4.993868 L 19.31351 47.806371 C 19.31351 49.129287 18.787468 50.400121 17.849968 51.337621 C 16.912468 52.275121 15.641635 52.801163 14.318718 52.801163 L 4.995801 52.801163 C 3.672884 52.801163 2.40205 52.275121 1.46455 51.337621 C 0.52705 50.400121 0.0010086 49.129287 0.0010086 47.806371 L 0.0010086 4.993868 C 0.0010086 3.670951 0.52705 2.400118 1.46455 1.462618 C 2.40205 0.525118 3.672884 -0.000923841 4.995801 -0.000923841 Z M 4.995801 -0.000923841 " stroke="#ffffff" stroke-width="4" stroke-opacity="1" stroke-miterlimit="4"/></g></g><g clip-path="url(#5b0f7a7bac)"><g clip-path="url(#ae7389d11a)"><g transform="matrix(1, 0, 0, 1, 463, 91)"><g clip-path="url(#03ccee8706)"><g clip-path="url(#bfc760a592)"><g clip-path="url(#d6c0e7c7cb)"><path fill="#ffffff" d="M 0.46875 0.730469 L 6.996094 0.730469 L 6.996094 6.429688 L 0.46875 6.429688 Z M 0.46875 0.730469 " fill-opacity="1" fill-rule="nonzero"/></g></g></g></g></g></g><g clip-path="url(#0cba37e06f)"><g clip-path="url(#a8ddd65139)"><g transform="matrix(1, 0, 0, 1, 463, 117)"><g clip-path="url(#af2511047a)"><g clip-path="url(#28a2bf3c45)"><g clip-path="url(#37004abab5)"><path fill="#ffffff" d="M 6.972656 6.117188 L 0.449219 6.117188 L 0.449219 0.417969 L 6.972656 0.417969 Z M 6.972656 6.117188 " fill-opacity="1" fill-rule="nonzero"/></g></g></g></g></g></g><g clip-path="url(#26728b36c9)"><g clip-path="url(#7fae8ab611)"><g transform="matrix(1, 0, 0, 1, 450, 104)"><g clip-path="url(#80957eafe1)"><g clip-path="url(#c9f5ec6d5c)"><g clip-path="url(#a015b32c84)"><path fill="#ffffff" d="M 0.679688 6.792969 L 0.679688 0.265625 L 6.382812 0.265625 L 6.382812 6.792969 Z M 0.679688 6.792969 " fill-opacity="1" fill-rule="nonzero"/></g></g></g></g></g></g><g clip-path="url(#38349e7506)"><g clip-path="url(#0b96ff6e20)"><g transform="matrix(1, 0, 0, 1, 477, 104)"><g clip-path="url(#201f05934e)"><g clip-path="url(#b260cfe7ab)"><g clip-path="url(#9545aef972)"><path fill="#ffffff" d="M 5.804688 0.289062 L 5.804688 6.8125 L 0.105469 6.8125 L 0.105469 0.289062 Z M 5.804688 0.289062 " fill-opacity="1" fill-rule="nonzero"/></g></g></g></g></g></g><g clip-path="url(#3e5e0efea6)"><path stroke-linecap="butt" transform="matrix(0.75, 0, 0, 0.75, 500.680416, 38.679649)" fill="none" stroke-linejoin="miter" d="M -0.000971058 0.0000507684 L 33.801114 0.0000507684 L 33.801114 10.375051 L -0.000971058 10.375051 Z M -0.000971058 0.0000507684 " stroke="#ffffff" stroke-width="4" stroke-opacity="1" stroke-miterlimit="4"/></g><g clip-path="url(#3b6cab5f40)"><g transform="matrix(1, 0, 0, 1, 494, 41)"><g clip-path="url(#601b0d7710)"><g clip-path="url(#c1532b18a3)"><path fill="#ffffff" d="M 0.421875 0.257812 L 3.457031 0.257812 L 3.457031 2.890625 L 0.421875 2.890625 Z M 0.421875 0.257812 " fill-opacity="1" fill-rule="nonzero"/></g></g></g></g><g clip-path="url(#15a9b15a72)"><g transform="matrix(1, 0, 0, 1, 529, 41)"><g clip-path="url(#a235c223b0)"><g clip-path="url(#d347db2285)"><path fill="#ffffff" d="M 0.210938 0.257812 L 3.242188 0.257812 L 3.242188 2.890625 L 0.210938 2.890625 Z M 0.210938 0.257812 " fill-opacity="1" fill-rule="nonzero"/></g></g></g></g><g clip-path="url(#4eada443f0)"><path stroke-linecap="butt" transform="matrix(0.75, 0, 0, 0.75, 500.680416, 30.886996)" fill="none" stroke-linejoin="miter" d="M -0.000971058 -0.000369718 L 33.801114 -0.000369718 L 33.801114 10.374631 L -0.000971058 10.374631 Z M -0.000971058 -0.000369718 " stroke="#ffffff" stroke-width="4" stroke-opacity="1" stroke-miterlimit="4"/></g><g clip-path="url(#8bded1bef8)"><g transform="matrix(1, 0, 0, 1, 494, 33)"><g clip-path="url(#a2de728718)"><g clip-path="url(#ee5bc5e3de)"><path fill="#ffffff" d="M 0.421875 0.46875 L 3.457031 0.46875 L 3.457031 3.101562 L 0.421875 3.101562 Z M 0.421875 0.46875 " fill-opacity="1" fill-rule="nonzero"/></g></g></g></g><g clip-path="url(#a495272811)"><g transform="matrix(1, 0, 0, 1, 529, 33)"><g clip-path="url(#568de5a21b)"><g clip-path="url(#8f1f84ea5d)"><path fill="#ffffff" d="M 0.210938 0.46875 L 3.242188 0.46875 L 3.242188 3.101562 L 0.210938 3.101562 Z M 0.210938 0.46875 " fill-opacity="1" fill-rule="nonzero"/></g></g></g></g><g clip-path="url(#684078c529)"><path stroke-linecap="butt" transform="matrix(0.75, 0, 0, 0.75, 500.680416, 46.472303)" fill="none" stroke-linejoin="miter" d="M -0.000971058 0.000470615 L 33.801114 0.000470615 L 33.801114 10.375471 L -0.000971058 10.375471 Z M -0.000971058 0.000470615 " stroke="#ffffff" stroke-width="4" stroke-opacity="1" stroke-miterlimit="4"/></g><g clip-path="url(#5e6eef094c)"><g transform="matrix(1, 0, 0, 1, 494, 49)"><g clip-path="url(#6103c06a7f)"><g clip-path="url(#39b8f3a892)"><path fill="#ffffff" d="M 0.421875 0.0507812 L 3.457031 0.0507812 L 3.457031 2.683594 L 0.421875 2.683594 Z M 0.421875 0.0507812 " fill-opacity="1" fill-rule="nonzero"/></g></g></g></g><g clip-path="url(#263bbaff95)"><g transform="matrix(1, 0, 0, 1, 529, 49)"><g clip-path="url(#01d04ca004)"><g clip-path="url(#546a095fb8)"><path fill="#ffffff" d="M 0.210938 0.0507812 L 3.242188 0.0507812 L 3.242188 2.683594 L 0.210938 2.683594 Z M 0.210938 0.0507812 " fill-opacity="1" fill-rule="nonzero"/></g></g></g></g><g clip-path="url(#9f29aa4e4e)"><path stroke-linecap="butt" transform="matrix(0.75, 0, 0, 0.75, 500.680416, 54.264952)" fill="none" stroke-linejoin="miter" d="M -0.000971058 0.000897821 L 33.801114 0.000897821 L 33.801114 10.375898 L -0.000971058 10.375898 Z M -0.000971058 0.000897821 " stroke="#ffffff" stroke-width="4" stroke-opacity="1" stroke-miterlimit="4"/></g><g clip-path="url(#249961e319)"><g transform="matrix(1, 0, 0, 1, 494, 56)"><g clip-path="url(#d4a772bc4b)"><g clip-path="url(#cfa47bccd1)"><path fill="#ffffff" d="M 0.421875 0.84375 L 3.457031 0.84375 L 3.457031 3.476562 L 0.421875 3.476562 Z M 0.421875 0.84375 " fill-opacity="1" fill-rule="nonzero"/></g></g></g></g><g clip-path="url(#eca9ec2219)"><g transform="matrix(1, 0, 0, 1, 529, 56)"><g clip-path="url(#445b2d5b29)"><g clip-path="url(#ea3189d30a)"><path fill="#ffffff" d="M 0.210938 0.84375 L 3.242188 0.84375 L 3.242188 3.476562 L 0.210938 3.476562 Z M 0.210938 0.84375 " fill-opacity="1" fill-rule="nonzero"/></g></g></g></g><g clip-path="url(#aaee4ac76c)"><path stroke-linecap="butt" transform="matrix(0.75, 0, 0, 0.75, 500.680416, 62.057612)" fill="none" stroke-linejoin="miter" d="M -0.000971058 0.00130903 L 33.801114 0.00130903 L 33.801114 10.37631 L -0.000971058 10.37631 Z M -0.000971058 0.00130903 " stroke="#ffffff" stroke-width="4" stroke-opacity="1" stroke-miterlimit="4"/></g><g clip-path="url(#9d087ae551)"><g transform="matrix(1, 0, 0, 1, 494, 64)"><g clip-path="url(#2c159d22e1)"><g clip-path="url(#a5f4443189)"><path fill="#ffffff" d="M 0.421875 0.636719 L 3.457031 0.636719 L 3.457031 3.269531 L 0.421875 3.269531 Z M 0.421875 0.636719 " fill-opacity="1" fill-rule="nonzero"/></g></g></g></g><g clip-path="url(#08f381b659)"><g transform="matrix(1, 0, 0, 1, 529, 64)"><g clip-path="url(#c5531afc05)"><g clip-path="url(#f0b685d173)"><path fill="#ffffff" d="M 0.210938 0.636719 L 3.242188 0.636719 L 3.242188 3.269531 L 0.210938 3.269531 Z M 0.210938 0.636719 " fill-opacity="1" fill-rule="nonzero"/></g></g></g></g><g clip-path="url(#3102371a34)"><path stroke-linecap="butt" transform="matrix(0.75, 0, 0, 0.75, 500.680416, 69.850268)" fill="none" stroke-linejoin="miter" d="M -0.000971058 0.00172663 L 33.801114 0.00172663 L 33.801114 10.376727 L -0.000971058 10.376727 Z M -0.000971058 0.00172663 " stroke="#ffffff" stroke-width="4" stroke-opacity="1" stroke-miterlimit="4"/></g><g clip-path="url(#3325557cd3)"><g transform="matrix(1, 0, 0, 1, 494, 72)"><g clip-path="url(#b4526fe480)"><g clip-path="url(#12066b4442)"><path fill="#ffffff" d="M 0.421875 0.429688 L 3.457031 0.429688 L 3.457031 3.0625 L 0.421875 3.0625 Z M 0.421875 0.429688 " fill-opacity="1" fill-rule="nonzero"/></g></g></g></g><g clip-path="url(#c8d2d0e210)"><g transform="matrix(1, 0, 0, 1, 529, 72)"><g clip-path="url(#7937003c40)"><g clip-path="url(#8b7338fe8b)"><path fill="#ffffff" d="M 0.210938 0.429688 L 3.242188 0.429688 L 3.242188 3.0625 L 0.210938 3.0625 Z M 0.210938 0.429688 " fill-opacity="1" fill-rule="nonzero"/></g></g></g></g><g clip-path="url(#da44800308)"><path stroke-linecap="butt" transform="matrix(0.75, 0, 0, 0.75, 500.680416, 77.422701)" fill="none" stroke-linejoin="miter" d="M -0.000971058 -0.00110198 L 33.801114 -0.00110198 L 33.801114 10.373899 L -0.000971058 10.373899 Z M -0.000971058 -0.00110198 " stroke="#ffffff" stroke-width="4" stroke-opacity="1" stroke-miterlimit="4"/></g><g clip-path="url(#9d280c0600)"><g transform="matrix(1, 0, 0, 1, 494, 80)"><g clip-path="url(#ef81ecc6f4)"><g clip-path="url(#106b069ed0)"><path fill="#ffffff" d="M 0.421875 0.00390625 L 3.457031 0.00390625 L 3.457031 2.636719 L 0.421875 2.636719 Z M 0.421875 0.00390625 " fill-opacity="1" fill-rule="nonzero"/></g></g></g></g><g clip-path="url(#0d06bd434e)"><g transform="matrix(1, 0, 0, 1, 529, 80)"><g clip-path="url(#8b64aeba24)"><g clip-path="url(#acda80631b)"><path fill="#ffffff" d="M 0.210938 0.00390625 L 3.242188 0.00390625 L 3.242188 2.636719 L 0.210938 2.636719 Z M 0.210938 0.00390625 " fill-opacity="1" fill-rule="nonzero"/></g></g></g></g><g clip-path="url(#265ee39d8f)"><path stroke-linecap="butt" transform="matrix(0.75, 0, 0, 0.75, 500.680416, 85.215364)" fill="none" stroke-linejoin="miter" d="M -0.000971058 -0.000693972 L 33.801114 -0.000693972 L 33.801114 10.374307 L -0.000971058 10.374307 Z M -0.000971058 -0.000693972 " stroke="#ffffff" stroke-width="4" stroke-opacity="1" stroke-miterlimit="4"/></g><g clip-path="url(#8cd1b03296)"><g transform="matrix(1, 0, 0, 1, 494, 87)"><g clip-path="url(#6225dec70a)"><g clip-path="url(#49de438932)"><path fill="#ffffff" d="M 0.421875 0.796875 L 3.457031 0.796875 L 3.457031 3.429688 L 0.421875 3.429688 Z M 0.421875 0.796875 " fill-opacity="1" fill-rule="nonzero"/></g></g></g></g><g clip-path="url(#9d37712bea)"><g transform="matrix(1, 0, 0, 1, 529, 87)"><g clip-path="url(#61a483169d)"><g clip-path="url(#5f65c703e5)"><path fill="#ffffff" d="M 0.210938 0.796875 L 3.242188 0.796875 L 3.242188 3.429688 L 0.210938 3.429688 Z M 0.210938 0.796875 " fill-opacity="1" fill-rule="nonzero"/></g></g></g></g><g clip-path="url(#a34c079d0d)"><path stroke-linecap="butt" transform="matrix(0.75, 0, 0, 0.75, 500.680416, 92.587021)" fill="none" stroke-linejoin="miter" d="M -0.000971058 -0.0014452 L 33.801114 -0.0014452 L 33.801114 10.373555 L -0.000971058 10.373555 Z M -0.000971058 -0.0014452 " stroke="#ffffff" stroke-width="4" stroke-opacity="1" stroke-miterlimit="4"/></g><g clip-path="url(#d9877af5c3)"><g transform="matrix(1, 0, 0, 1, 494, 95)"><g clip-path="url(#555ac857e9)"><g clip-path="url(#6a54e50626)"><path fill="#ffffff" d="M 0.421875 0.167969 L 3.457031 0.167969 L 3.457031 2.800781 L 0.421875 2.800781 Z M 0.421875 0.167969 " fill-opacity="1" fill-rule="nonzero"/></g></g></g></g><g clip-path="url(#15bd7cdca5)"><g transform="matrix(1, 0, 0, 1, 529, 95)"><g clip-path="url(#d9e9258ce8)"><g clip-path="url(#6f2afe83d1)"><path fill="#ffffff" d="M 0.210938 0.167969 L 3.242188 0.167969 L 3.242188 2.800781 L 0.210938 2.800781 Z M 0.210938 0.167969 " fill-opacity="1" fill-rule="nonzero"/></g></g></g></g><g clip-path="url(#8dfe693783)"><path stroke-linecap="butt" transform="matrix(0.75, 0, 0, 0.75, 500.680416, 100.388735)" fill="none" stroke-linejoin="miter" d="M -0.000971058 0.00252061 L 33.801114 0.00252061 L 33.801114 10.377521 L -0.000971058 10.377521 Z M -0.000971058 0.00252061 " stroke="#ffffff" stroke-width="4" stroke-opacity="1" stroke-miterlimit="4"/></g><g clip-path="url(#6a6f155a54)"><g transform="matrix(1, 0, 0, 1, 494, 102)"><g clip-path="url(#a2c3d99603)"><g clip-path="url(#5c53a0ec9c)"><path fill="#ffffff" d="M 0.421875 0.96875 L 3.457031 0.96875 L 3.457031 3.601562 L 0.421875 3.601562 Z M 0.421875 0.96875 " fill-opacity="1" fill-rule="nonzero"/></g></g></g></g><g clip-path="url(#1a81680a1b)"><g transform="matrix(1, 0, 0, 1, 529, 102)"><g clip-path="url(#41d3f7b5ed)"><g clip-path="url(#0e02d7969c)"><path fill="#ffffff" d="M 0.210938 0.96875 L 3.242188 0.96875 L 3.242188 3.601562 L 0.210938 3.601562 Z M 0.210938 0.96875 " fill-opacity="1" fill-rule="nonzero"/></g></g></g></g><g clip-path="url(#4712dcf0fb)"><path stroke-linecap="butt" transform="matrix(0.75, 0, 0, 0.75, 500.680416, 108.181395)" fill="none" stroke-linejoin="miter" d="M -0.000971058 -0.00227652 L 33.801114 -0.00227652 L 33.801114 10.372724 L -0.000971058 10.372724 Z M -0.000971058 -0.00227652 " stroke="#ffffff" stroke-width="4" stroke-opacity="1" stroke-miterlimit="4"/></g><g clip-path="url(#e22904dcbb)"><g transform="matrix(1, 0, 0, 1, 494, 110)"><g clip-path="url(#f70ed0050c)"><g clip-path="url(#e4ef707b32)"><path fill="#ffffff" d="M 0.421875 0.761719 L 3.457031 0.761719 L 3.457031 3.394531 L 0.421875 3.394531 Z M 0.421875 0.761719 " fill-opacity="1" fill-rule="nonzero"/></g></g></g></g><g clip-path="url(#173ed6d07b)"><g transform="matrix(1, 0, 0, 1, 529, 110)"><g clip-path="url(#312990352c)"><g clip-path="url(#f33662b837)"><path fill="#ffffff" d="M 0.210938 0.761719 L 3.242188 0.761719 L 3.242188 3.394531 L 0.210938 3.394531 Z M 0.210938 0.761719 " fill-opacity="1" fill-rule="nonzero"/></g></g></g></g><g clip-path="url(#8d51924904)"><path stroke-linecap="butt" transform="matrix(0.75, 0, 0, 0.75, 500.680416, 116.37685)" fill="none" stroke-linejoin="miter" d="M -0.000971058 -0.00246615 L 33.801114 -0.00246615 L 33.801114 10.372534 L -0.000971058 10.372534 Z M -0.000971058 -0.00246615 " stroke="#ffffff" stroke-width="4" stroke-opacity="1" stroke-miterlimit="4"/></g><g clip-path="url(#e0f306f78e)"><g transform="matrix(1, 0, 0, 1, 494, 118)"><g clip-path="url(#fb63a2b71f)"><g clip-path="url(#7b6ffe39d6)"><path fill="#ffffff" d="M 0.421875 0.957031 L 3.457031 0.957031 L 3.457031 3.589844 L 0.421875 3.589844 Z M 0.421875 0.957031 " fill-opacity="1" fill-rule="nonzero"/></g></g></g></g><g clip-path="url(#cb3e396f8a)"><g transform="matrix(1, 0, 0, 1, 529, 118)"><g clip-path="url(#d9ff95ecde)"><g clip-path="url(#28ee2ba915)"><path fill="#ffffff" d="M 0.210938 0.957031 L 3.242188 0.957031 L 3.242188 3.589844 L 0.210938 3.589844 Z M 0.210938 0.957031 " fill-opacity="1" fill-rule="nonzero"/></g></g></g></g></svg>